<svg width="180" height="275" viewBox="0 0 180 275" fill="none" xmlns="http://www.w3.org/2000/svg">
<g opacity="0.2">
<g clip-path="url(#clip0_767_777)" filter="url(#filter0_f_767_777)">
<mask id="path-1-inside-1_767_777" fill="white">
<path d="M32.0001 -31.4C28.4609 -31.4 25.6001 -28.5392 25.6001 -25V231C25.6001 234.539 28.4609 237.4 32.0001 237.4H179.563C176.964 233.349 174.669 229.093 172.8 224.6H38.4001V-18.6H281.6V115.8C286.093 117.675 290.349 119.977 294.4 122.575V-25C294.4 -28.5392 291.539 -31.4 288 -31.4H32.0001ZM134.4 0.599978C123.869 0.599978 115.2 9.26907 115.2 19.8C115.2 20.6434 115.367 21.4784 115.691 22.2571C116.015 23.0358 116.49 23.7428 117.088 24.3375C119.345 32.4281 125.632 39 134.4 39H185.6C194.368 39 200.655 32.4281 202.913 24.3375C203.511 23.7428 203.985 23.0358 204.309 22.2571C204.633 21.4784 204.8 20.6434 204.8 19.8C204.8 9.26907 196.131 0.599978 185.6 0.599978H134.4ZM134.4 13.4H185.6C189.149 13.4 192 16.2509 192 19.8C192 23.3491 189.149 26.2 185.6 26.2H134.4C130.851 26.2 128 23.3491 128 19.8C128 16.2509 130.851 13.4 134.4 13.4ZM236.8 122.2L232.963 142.675C231.043 143.315 228.483 143.957 226.563 145.237L209.275 133.075L190.075 152.275L201.6 168.275C200.96 170.835 199.678 172.765 199.038 175.325L179.2 178.525V205.4L199.038 208.6C199.678 210.52 200.32 213.08 201.6 215L190.075 232.275L209.275 251.475L226.563 239.962C229.123 241.242 231.04 241.885 233.6 242.525L236.8 263H263.038L266.875 243.163C268.795 242.523 270.715 241.88 273.275 240.6L290.563 252.125L309.763 232.925L297.6 216.275C298.88 213.715 299.523 211.157 300.163 209.237L320 205.4V178.525L299.525 175.325C298.885 173.405 298.243 170.845 296.963 168.925L308.475 151.637L289.925 133.075L273.275 145.237C271.355 143.957 268.795 143.315 266.875 142.675L263.675 122.2H236.8ZM247.675 135H252.8L255.363 152.275L259.2 153.562C263.04 154.842 266.875 156.117 270.075 158.037L273.925 160.6L288.638 149.725L291.838 152.925L281.6 167.637L283.525 170.837C285.445 174.677 286.72 178.522 288 182.362L289.275 186.2L307.2 188.762V193.875L289.925 197.725L288.638 201.562C287.358 205.402 286.083 209.237 284.163 212.437L281.6 216.275L292.475 231L288.638 234.837L273.925 224.6L270.725 226.525C266.885 228.445 263.04 229.72 259.2 231L255.363 232.275L252.163 250.2H247.038L244.475 232.925L240.638 231.637C236.798 230.357 232.963 229.082 229.763 227.162L225.925 224.6L210.563 234.837L206.725 231L216.963 216.275L215.038 213.075C213.118 209.235 211.843 204.762 210.563 201.562L209.275 197.725L192 194.525V189.4L209.925 186.2L210.563 181.725C211.203 178.525 212.48 174.675 214.4 171.475L216.963 168.275L206.725 153.562L210.563 149.725L225.275 159.962L228.475 158.675C232.955 156.755 236.798 154.842 240.638 153.562L244.475 152.925L247.675 135ZM249.6 166.362C235.52 166.362 224 177.882 224 191.962C224 206.042 235.52 217.562 249.6 217.562C263.68 217.562 275.2 206.682 275.2 191.962C275.2 177.882 263.68 166.362 249.6 166.362ZM249.6 179.8C256.64 179.8 262.4 184.92 262.4 192.6C262.4 199.64 256.64 205.4 249.6 205.4C242.56 205.4 236.8 199.64 236.8 192.6C236.8 185.56 242.56 179.8 249.6 179.8Z"/>
</mask>
<path d="M32.0001 -31.4C28.4609 -31.4 25.6001 -28.5392 25.6001 -25V231C25.6001 234.539 28.4609 237.4 32.0001 237.4H179.563C176.964 233.349 174.669 229.093 172.8 224.6H38.4001V-18.6H281.6V115.8C286.093 117.675 290.349 119.977 294.4 122.575V-25C294.4 -28.5392 291.539 -31.4 288 -31.4H32.0001ZM134.4 0.599978C123.869 0.599978 115.2 9.26907 115.2 19.8C115.2 20.6434 115.367 21.4784 115.691 22.2571C116.015 23.0358 116.49 23.7428 117.088 24.3375C119.345 32.4281 125.632 39 134.4 39H185.6C194.368 39 200.655 32.4281 202.913 24.3375C203.511 23.7428 203.985 23.0358 204.309 22.2571C204.633 21.4784 204.8 20.6434 204.8 19.8C204.8 9.26907 196.131 0.599978 185.6 0.599978H134.4ZM134.4 13.4H185.6C189.149 13.4 192 16.2509 192 19.8C192 23.3491 189.149 26.2 185.6 26.2H134.4C130.851 26.2 128 23.3491 128 19.8C128 16.2509 130.851 13.4 134.4 13.4ZM236.8 122.2L232.963 142.675C231.043 143.315 228.483 143.957 226.563 145.237L209.275 133.075L190.075 152.275L201.6 168.275C200.96 170.835 199.678 172.765 199.038 175.325L179.2 178.525V205.4L199.038 208.6C199.678 210.52 200.32 213.08 201.6 215L190.075 232.275L209.275 251.475L226.563 239.962C229.123 241.242 231.04 241.885 233.6 242.525L236.8 263H263.038L266.875 243.163C268.795 242.523 270.715 241.88 273.275 240.6L290.563 252.125L309.763 232.925L297.6 216.275C298.88 213.715 299.523 211.157 300.163 209.237L320 205.4V178.525L299.525 175.325C298.885 173.405 298.243 170.845 296.963 168.925L308.475 151.637L289.925 133.075L273.275 145.237C271.355 143.957 268.795 143.315 266.875 142.675L263.675 122.2H236.8ZM247.675 135H252.8L255.363 152.275L259.2 153.562C263.04 154.842 266.875 156.117 270.075 158.037L273.925 160.6L288.638 149.725L291.838 152.925L281.6 167.637L283.525 170.837C285.445 174.677 286.72 178.522 288 182.362L289.275 186.2L307.2 188.762V193.875L289.925 197.725L288.638 201.562C287.358 205.402 286.083 209.237 284.163 212.437L281.6 216.275L292.475 231L288.638 234.837L273.925 224.6L270.725 226.525C266.885 228.445 263.04 229.72 259.2 231L255.363 232.275L252.163 250.2H247.038L244.475 232.925L240.638 231.637C236.798 230.357 232.963 229.082 229.763 227.162L225.925 224.6L210.563 234.837L206.725 231L216.963 216.275L215.038 213.075C213.118 209.235 211.843 204.762 210.563 201.562L209.275 197.725L192 194.525V189.4L209.925 186.2L210.563 181.725C211.203 178.525 212.48 174.675 214.4 171.475L216.963 168.275L206.725 153.562L210.563 149.725L225.275 159.962L228.475 158.675C232.955 156.755 236.798 154.842 240.638 153.562L244.475 152.925L247.675 135ZM249.6 166.362C235.52 166.362 224 177.882 224 191.962C224 206.042 235.52 217.562 249.6 217.562C263.68 217.562 275.2 206.682 275.2 191.962C275.2 177.882 263.68 166.362 249.6 166.362ZM249.6 179.8C256.64 179.8 262.4 184.92 262.4 192.6C262.4 199.64 256.64 205.4 249.6 205.4C242.56 205.4 236.8 199.64 236.8 192.6C236.8 185.56 242.56 179.8 249.6 179.8Z" stroke="url(#paint0_linear_767_777)" stroke-width="3.975" mask="url(#path-1-inside-1_767_777)"/>
</g>
<g clip-path="url(#clip1_767_777)">
<mask id="path-2-inside-2_767_777" fill="white">
<path d="M32.0001 -31.4C28.4609 -31.4 25.6001 -28.5392 25.6001 -25V231C25.6001 234.539 28.4609 237.4 32.0001 237.4H179.563C176.964 233.349 174.669 229.093 172.8 224.6H38.4001V-18.6H281.6V115.8C286.093 117.675 290.349 119.977 294.4 122.575V-25C294.4 -28.5392 291.539 -31.4 288 -31.4H32.0001ZM134.4 0.599978C123.869 0.599978 115.2 9.26907 115.2 19.8C115.2 20.6434 115.367 21.4784 115.691 22.2571C116.015 23.0358 116.49 23.7428 117.088 24.3375C119.345 32.4281 125.632 39 134.4 39H185.6C194.368 39 200.655 32.4281 202.913 24.3375C203.511 23.7428 203.985 23.0358 204.309 22.2571C204.633 21.4784 204.8 20.6434 204.8 19.8C204.8 9.26907 196.131 0.599978 185.6 0.599978H134.4ZM134.4 13.4H185.6C189.149 13.4 192 16.2509 192 19.8C192 23.3491 189.149 26.2 185.6 26.2H134.4C130.851 26.2 128 23.3491 128 19.8C128 16.2509 130.851 13.4 134.4 13.4ZM236.8 122.2L232.963 142.675C231.043 143.315 228.483 143.957 226.563 145.237L209.275 133.075L190.075 152.275L201.6 168.275C200.96 170.835 199.678 172.765 199.038 175.325L179.2 178.525V205.4L199.038 208.6C199.678 210.52 200.32 213.08 201.6 215L190.075 232.275L209.275 251.475L226.563 239.962C229.123 241.242 231.04 241.885 233.6 242.525L236.8 263H263.038L266.875 243.163C268.795 242.523 270.715 241.88 273.275 240.6L290.563 252.125L309.763 232.925L297.6 216.275C298.88 213.715 299.523 211.157 300.163 209.237L320 205.4V178.525L299.525 175.325C298.885 173.405 298.243 170.845 296.963 168.925L308.475 151.637L289.925 133.075L273.275 145.237C271.355 143.957 268.795 143.315 266.875 142.675L263.675 122.2H236.8ZM247.675 135H252.8L255.363 152.275L259.2 153.562C263.04 154.842 266.875 156.117 270.075 158.037L273.925 160.6L288.638 149.725L291.838 152.925L281.6 167.637L283.525 170.837C285.445 174.677 286.72 178.522 288 182.362L289.275 186.2L307.2 188.762V193.875L289.925 197.725L288.638 201.562C287.358 205.402 286.083 209.237 284.163 212.437L281.6 216.275L292.475 231L288.638 234.837L273.925 224.6L270.725 226.525C266.885 228.445 263.04 229.72 259.2 231L255.363 232.275L252.163 250.2H247.038L244.475 232.925L240.638 231.637C236.798 230.357 232.963 229.082 229.763 227.162L225.925 224.6L210.563 234.837L206.725 231L216.963 216.275L215.038 213.075C213.118 209.235 211.843 204.762 210.563 201.562L209.275 197.725L192 194.525V189.4L209.925 186.2L210.563 181.725C211.203 178.525 212.48 174.675 214.4 171.475L216.963 168.275L206.725 153.562L210.563 149.725L225.275 159.962L228.475 158.675C232.955 156.755 236.798 154.842 240.638 153.562L244.475 152.925L247.675 135ZM249.6 166.362C235.52 166.362 224 177.882 224 191.962C224 206.042 235.52 217.562 249.6 217.562C263.68 217.562 275.2 206.682 275.2 191.962C275.2 177.882 263.68 166.362 249.6 166.362ZM249.6 179.8C256.64 179.8 262.4 184.92 262.4 192.6C262.4 199.64 256.64 205.4 249.6 205.4C242.56 205.4 236.8 199.64 236.8 192.6C236.8 185.56 242.56 179.8 249.6 179.8Z"/>
</mask>
<path d="M32.0001 -31.4C28.4609 -31.4 25.6001 -28.5392 25.6001 -25V231C25.6001 234.539 28.4609 237.4 32.0001 237.4H179.563C176.964 233.349 174.669 229.093 172.8 224.6H38.4001V-18.6H281.6V115.8C286.093 117.675 290.349 119.977 294.4 122.575V-25C294.4 -28.5392 291.539 -31.4 288 -31.4H32.0001ZM134.4 0.599978C123.869 0.599978 115.2 9.26907 115.2 19.8C115.2 20.6434 115.367 21.4784 115.691 22.2571C116.015 23.0358 116.49 23.7428 117.088 24.3375C119.345 32.4281 125.632 39 134.4 39H185.6C194.368 39 200.655 32.4281 202.913 24.3375C203.511 23.7428 203.985 23.0358 204.309 22.2571C204.633 21.4784 204.8 20.6434 204.8 19.8C204.8 9.26907 196.131 0.599978 185.6 0.599978H134.4ZM134.4 13.4H185.6C189.149 13.4 192 16.2509 192 19.8C192 23.3491 189.149 26.2 185.6 26.2H134.4C130.851 26.2 128 23.3491 128 19.8C128 16.2509 130.851 13.4 134.4 13.4ZM236.8 122.2L232.963 142.675C231.043 143.315 228.483 143.957 226.563 145.237L209.275 133.075L190.075 152.275L201.6 168.275C200.96 170.835 199.678 172.765 199.038 175.325L179.2 178.525V205.4L199.038 208.6C199.678 210.52 200.32 213.08 201.6 215L190.075 232.275L209.275 251.475L226.563 239.962C229.123 241.242 231.04 241.885 233.6 242.525L236.8 263H263.038L266.875 243.163C268.795 242.523 270.715 241.88 273.275 240.6L290.563 252.125L309.763 232.925L297.6 216.275C298.88 213.715 299.523 211.157 300.163 209.237L320 205.4V178.525L299.525 175.325C298.885 173.405 298.243 170.845 296.963 168.925L308.475 151.637L289.925 133.075L273.275 145.237C271.355 143.957 268.795 143.315 266.875 142.675L263.675 122.2H236.8ZM247.675 135H252.8L255.363 152.275L259.2 153.562C263.04 154.842 266.875 156.117 270.075 158.037L273.925 160.6L288.638 149.725L291.838 152.925L281.6 167.637L283.525 170.837C285.445 174.677 286.72 178.522 288 182.362L289.275 186.2L307.2 188.762V193.875L289.925 197.725L288.638 201.562C287.358 205.402 286.083 209.237 284.163 212.437L281.6 216.275L292.475 231L288.638 234.837L273.925 224.6L270.725 226.525C266.885 228.445 263.04 229.72 259.2 231L255.363 232.275L252.163 250.2H247.038L244.475 232.925L240.638 231.637C236.798 230.357 232.963 229.082 229.763 227.162L225.925 224.6L210.563 234.837L206.725 231L216.963 216.275L215.038 213.075C213.118 209.235 211.843 204.762 210.563 201.562L209.275 197.725L192 194.525V189.4L209.925 186.2L210.563 181.725C211.203 178.525 212.48 174.675 214.4 171.475L216.963 168.275L206.725 153.562L210.563 149.725L225.275 159.962L228.475 158.675C232.955 156.755 236.798 154.842 240.638 153.562L244.475 152.925L247.675 135ZM249.6 166.362C235.52 166.362 224 177.882 224 191.962C224 206.042 235.52 217.562 249.6 217.562C263.68 217.562 275.2 206.682 275.2 191.962C275.2 177.882 263.68 166.362 249.6 166.362ZM249.6 179.8C256.64 179.8 262.4 184.92 262.4 192.6C262.4 199.64 256.64 205.4 249.6 205.4C242.56 205.4 236.8 199.64 236.8 192.6C236.8 185.56 242.56 179.8 249.6 179.8Z" fill="url(#paint1_linear_767_777)" stroke="url(#paint2_linear_767_777)" stroke-width="3.975" mask="url(#path-2-inside-2_767_777)"/>
</g>
</g>
<defs>
<filter id="filter0_f_767_777" x="-11.9846" y="-68.9846" width="343.969" height="343.969" filterUnits="userSpaceOnUse" color-interpolation-filters="sRGB">
<feFlood flood-opacity="0" result="BackgroundImageFix"/>
<feBlend mode="normal" in="SourceGraphic" in2="BackgroundImageFix" result="shape"/>
<feGaussianBlur stdDeviation="5.99231" result="effect1_foregroundBlur_767_777"/>
</filter>
<linearGradient id="paint0_linear_767_777" x1="320" y1="-31.4" x2="25.6001" y2="263" gradientUnits="userSpaceOnUse">
<stop offset="0.260417" stop-color="#8556E9"/>
<stop offset="1" stop-color="#578CF2"/>
</linearGradient>
<linearGradient id="paint1_linear_767_777" x1="320" y1="-31.4" x2="25.6001" y2="263" gradientUnits="userSpaceOnUse">
<stop stop-color="#8556E9"/>
<stop offset="0.645833" stop-color="#0EB6EA"/>
</linearGradient>
<linearGradient id="paint2_linear_767_777" x1="320" y1="-31.4" x2="25.6001" y2="263" gradientUnits="userSpaceOnUse">
<stop stop-color="#8556E9"/>
<stop offset="0.645833" stop-color="#0EB6EA"/>
</linearGradient>
<clipPath id="clip0_767_777">
<rect width="320" height="320" fill="white" transform="translate(0 -57)"/>
</clipPath>
<clipPath id="clip1_767_777">
<rect width="320" height="320" fill="white" transform="translate(0 -57)"/>
</clipPath>
</defs>
</svg>
