<svg width="192" height="269" viewBox="0 0 192 269" fill="none" xmlns="http://www.w3.org/2000/svg">
<g opacity="0.2">
<g clip-path="url(#clip0_767_760)" filter="url(#filter0_f_767_760)">
<path d="M134.594 205.4V204.406H133.6H24.8C21.6673 204.406 18.511 203.306 16.3027 201.097C14.0944 198.889 12.9937 195.733 12.9937 192.6V-37.8C12.9937 -40.9327 14.0944 -44.089 16.3027 -46.2973C18.511 -48.5056 21.6673 -49.6062 24.8 -49.6062H319.2C322.333 -49.6062 325.489 -48.5056 327.697 -46.2973C329.906 -44.089 331.006 -40.9327 331.006 -37.8V192.6C331.006 195.733 329.906 198.889 327.697 201.097C325.489 203.306 322.333 204.406 319.2 204.406H210.4H209.406V205.4V218.2V219.194H210.4H236.6C246.27 219.194 254.206 227.392 254.206 237.4V255.606H89.7938V237.4C89.7938 227.744 97.4768 219.194 107.4 219.194H133.6H134.594V218.2V205.4ZM24.8 -38.7937H23.8063V-37.8V192.6V193.594H24.8H138.6H138.701L138.8 193.573C139.518 193.426 140.282 193.426 141 193.573L141.099 193.594H141.2H202.6H202.701L202.8 193.573C203.518 193.426 204.282 193.426 205 193.573L205.099 193.594H205.2H319.2H320.194V192.6V-37.8V-38.7937H319.2H24.8ZM50.4 -13.1937H49.4063V-12.2V141.4V142.394H50.4H293.6H294.594V141.4V-12.2V-13.1937H293.6H50.4ZM174.376 127.1L174.359 127.109C172.931 127.775 171.249 127.772 169.823 127.101L169.823 127.101L169.817 127.098L169.79 127.085C169.765 127.073 169.728 127.055 169.677 127.03C169.635 127.009 169.585 126.984 169.526 126.955C169.441 126.912 169.339 126.86 169.22 126.799C168.817 126.591 168.221 126.274 167.463 125.844C165.945 124.983 163.773 123.667 161.178 121.857C155.986 118.235 149.102 112.64 142.355 104.754C128.868 88.9907 115.395 63.6162 115.394 26.204C115.417 23.6919 117.17 21.5189 119.616 20.97C135.106 17.5694 144.717 12.9033 152.059 9.08149C153.32 8.42499 154.516 7.77604 155.667 7.15093C161.314 4.08578 165.905 1.59377 172 1.59377C178.095 1.59377 182.686 4.08578 188.333 7.15093C189.484 7.77604 190.68 8.42499 191.941 9.08149C199.283 12.9033 208.894 17.5694 224.384 20.9701C226.83 21.519 228.583 23.6916 228.606 26.2032C228.605 62.681 215.014 87.9097 201.44 104.022C194.649 112.084 187.859 117.866 182.771 121.631C180.228 123.513 178.112 124.889 176.636 125.793C175.898 126.245 175.32 126.578 174.929 126.798C174.845 126.845 174.769 126.887 174.702 126.924C174.615 126.972 174.542 127.011 174.486 127.041L174.456 127.058C174.422 127.076 174.395 127.09 174.376 127.1ZM186.86 18.7192L186.859 18.7187L186.21 18.3805C182.672 16.5363 179.889 15.0861 177.679 14.0853C175.364 13.0377 173.522 12.4063 172 12.4063C170.478 12.4063 168.636 13.0377 166.321 14.0853C164.111 15.0861 161.328 16.5363 157.79 18.3805C157.576 18.4918 157.36 18.6046 157.141 18.7187L157.14 18.7192C150.458 22.2088 140.528 26.3822 127.348 29.8388L126.58 30.0402L126.607 30.8335C127.69 62.9175 138.904 84.3563 150.444 97.8455C160.211 109.278 168.014 113.902 171.331 115.676L171.807 115.931L172.28 115.67C179.198 111.853 215.326 89.1176 217.393 30.8352L217.421 30.0405L216.652 29.8388C203.472 26.3822 193.542 22.2088 186.86 18.7192ZM146.4 204.406H145.406V205.4V218.2V219.194H146.4H197.6H198.594V218.2V205.4V204.406H197.6H146.4ZM242.4 244.794H243.394V243.8V237.4C243.394 235.317 242.443 233.478 241.167 232.174C239.907 230.886 238.216 230.006 236.6 230.006H107.4C105.382 230.006 103.651 230.717 102.433 232.06C101.224 233.393 100.606 235.252 100.606 237.4V243.8V244.794H101.6H242.4ZM41.9027 -20.6973C44.111 -22.9056 47.2673 -24.0062 50.4 -24.0062H293.6C296.733 -24.0062 299.889 -22.9056 302.097 -20.6973C304.306 -18.489 305.406 -15.3327 305.406 -12.2V141.4C305.406 144.533 304.306 147.689 302.097 149.897C299.889 152.106 296.733 153.206 293.6 153.206H50.4C47.2673 153.206 44.111 152.106 41.9027 149.897C39.6944 147.689 38.5938 144.533 38.5938 141.4V-12.2C38.5938 -15.3327 39.6944 -18.489 41.9027 -20.6973ZM268.994 173.4C268.994 166.899 274.299 161.594 280.8 161.594C287.301 161.594 292.606 166.899 292.606 173.4C292.606 179.901 287.301 185.206 280.8 185.206C274.299 185.206 268.994 179.901 268.994 173.4Z" stroke="url(#paint0_linear_767_760)" stroke-width="1.9875"/>
</g>
<g clip-path="url(#clip1_767_760)">
<path d="M134.594 205.4V204.406H133.6H24.8C21.6673 204.406 18.511 203.306 16.3027 201.097C14.0944 198.889 12.9937 195.733 12.9937 192.6V-37.8C12.9937 -40.9327 14.0944 -44.089 16.3027 -46.2973C18.511 -48.5056 21.6673 -49.6062 24.8 -49.6062H319.2C322.333 -49.6062 325.489 -48.5056 327.697 -46.2973C329.906 -44.089 331.006 -40.9327 331.006 -37.8V192.6C331.006 195.733 329.906 198.889 327.697 201.097C325.489 203.306 322.333 204.406 319.2 204.406H210.4H209.406V205.4V218.2V219.194H210.4H236.6C246.27 219.194 254.206 227.392 254.206 237.4V255.606H89.7938V237.4C89.7938 227.744 97.4768 219.194 107.4 219.194H133.6H134.594V218.2V205.4ZM24.8 -38.7937H23.8063V-37.8V192.6V193.594H24.8H138.6H138.701L138.8 193.573C139.518 193.426 140.282 193.426 141 193.573L141.099 193.594H141.2H202.6H202.701L202.8 193.573C203.518 193.426 204.282 193.426 205 193.573L205.099 193.594H205.2H319.2H320.194V192.6V-37.8V-38.7937H319.2H24.8ZM50.4 -13.1937H49.4063V-12.2V141.4V142.394H50.4H293.6H294.594V141.4V-12.2V-13.1937H293.6H50.4ZM174.376 127.1L174.359 127.109C172.931 127.775 171.249 127.772 169.823 127.101L169.823 127.101L169.817 127.098L169.79 127.085C169.765 127.073 169.728 127.055 169.677 127.03C169.635 127.009 169.585 126.984 169.526 126.955C169.441 126.912 169.339 126.86 169.22 126.799C168.817 126.591 168.221 126.274 167.463 125.844C165.945 124.983 163.773 123.667 161.178 121.857C155.986 118.235 149.102 112.64 142.355 104.754C128.868 88.9907 115.395 63.6162 115.394 26.204C115.417 23.6919 117.17 21.5189 119.616 20.97C135.106 17.5694 144.717 12.9033 152.059 9.08149C153.32 8.42499 154.516 7.77604 155.667 7.15093C161.314 4.08578 165.905 1.59377 172 1.59377C178.095 1.59377 182.686 4.08578 188.333 7.15093C189.484 7.77604 190.68 8.42499 191.941 9.08149C199.283 12.9033 208.894 17.5694 224.384 20.9701C226.83 21.519 228.583 23.6916 228.606 26.2032C228.605 62.681 215.014 87.9097 201.44 104.022C194.649 112.084 187.859 117.866 182.771 121.631C180.228 123.513 178.112 124.889 176.636 125.793C175.898 126.245 175.32 126.578 174.929 126.798C174.845 126.845 174.769 126.887 174.702 126.924C174.615 126.972 174.542 127.011 174.486 127.041L174.456 127.058C174.422 127.076 174.395 127.09 174.376 127.1ZM186.86 18.7192L186.859 18.7187L186.21 18.3805C182.672 16.5363 179.889 15.0861 177.679 14.0853C175.364 13.0377 173.522 12.4063 172 12.4063C170.478 12.4063 168.636 13.0377 166.321 14.0853C164.111 15.0861 161.328 16.5363 157.79 18.3805C157.576 18.4918 157.36 18.6046 157.141 18.7187L157.14 18.7192C150.458 22.2088 140.528 26.3822 127.348 29.8388L126.58 30.0402L126.607 30.8335C127.69 62.9175 138.904 84.3563 150.444 97.8455C160.211 109.278 168.014 113.902 171.331 115.676L171.807 115.931L172.28 115.67C179.198 111.853 215.326 89.1176 217.393 30.8352L217.421 30.0405L216.652 29.8388C203.472 26.3822 193.542 22.2088 186.86 18.7192ZM146.4 204.406H145.406V205.4V218.2V219.194H146.4H197.6H198.594V218.2V205.4V204.406H197.6H146.4ZM242.4 244.794H243.394V243.8V237.4C243.394 235.317 242.443 233.478 241.167 232.174C239.907 230.886 238.216 230.006 236.6 230.006H107.4C105.382 230.006 103.651 230.717 102.433 232.06C101.224 233.393 100.606 235.252 100.606 237.4V243.8V244.794H101.6H242.4ZM41.9027 -20.6973C44.111 -22.9056 47.2673 -24.0062 50.4 -24.0062H293.6C296.733 -24.0062 299.889 -22.9056 302.097 -20.6973C304.306 -18.489 305.406 -15.3327 305.406 -12.2V141.4C305.406 144.533 304.306 147.689 302.097 149.897C299.889 152.106 296.733 153.206 293.6 153.206H50.4C47.2673 153.206 44.111 152.106 41.9027 149.897C39.6944 147.689 38.5938 144.533 38.5938 141.4V-12.2C38.5938 -15.3327 39.6944 -18.489 41.9027 -20.6973ZM268.994 173.4C268.994 166.899 274.299 161.594 280.8 161.594C287.301 161.594 292.606 166.899 292.606 173.4C292.606 179.901 287.301 185.206 280.8 185.206C274.299 185.206 268.994 179.901 268.994 173.4Z" fill="url(#paint1_linear_767_760)" stroke="url(#paint2_linear_767_760)" stroke-width="1.9875"/>
</g>
</g>
<defs>
<filter id="filter0_f_767_760" x="0.0153751" y="-68.9846" width="343.969" height="343.969" filterUnits="userSpaceOnUse" color-interpolation-filters="sRGB">
<feFlood flood-opacity="0" result="BackgroundImageFix"/>
<feBlend mode="normal" in="SourceGraphic" in2="BackgroundImageFix" result="shape"/>
<feGaussianBlur stdDeviation="5.99231" result="effect1_foregroundBlur_767_760"/>
</filter>
<linearGradient id="paint0_linear_767_760" x1="332" y1="-50.6" x2="25.0558" y2="269.134" gradientUnits="userSpaceOnUse">
<stop offset="0.260417" stop-color="#8556E9"/>
<stop offset="1" stop-color="#578CF2"/>
</linearGradient>
<linearGradient id="paint1_linear_767_760" x1="332" y1="-50.6" x2="25.0558" y2="269.134" gradientUnits="userSpaceOnUse">
<stop stop-color="#8556E9"/>
<stop offset="0.645833" stop-color="#0EB6EA"/>
</linearGradient>
<linearGradient id="paint2_linear_767_760" x1="332" y1="-50.6" x2="25.0558" y2="269.134" gradientUnits="userSpaceOnUse">
<stop stop-color="#8556E9"/>
<stop offset="0.645833" stop-color="#0EB6EA"/>
</linearGradient>
<clipPath id="clip0_767_760">
<rect width="320" height="320" fill="white" transform="translate(12 -57)"/>
</clipPath>
<clipPath id="clip1_767_760">
<rect width="320" height="320" fill="white" transform="translate(12 -57)"/>
</clipPath>
</defs>
</svg>
