<svg width="186" height="263" viewBox="0 0 186 263" fill="none" xmlns="http://www.w3.org/2000/svg">
<g opacity="0.2">
<g clip-path="url(#clip0_767_794)" filter="url(#filter0_f_767_794)">
<path d="M35.1624 174.394H36.8927L36.0207 172.899C33.8919 169.251 32.5937 165.09 32.5937 160.6V19.8C32.5937 6.23045 43.6303 -4.80624 57.1999 -4.80624H274.8C288.37 -4.80624 299.406 6.23045 299.406 19.8V65.0665C297.263 58.6166 293.491 52.9064 288.594 48.4101V19.8C288.594 12.192 282.408 6.00627 274.8 6.00627H57.1999C49.5919 6.00627 43.4062 12.192 43.4062 19.8V160.6C43.4062 168.208 49.5919 174.394 57.1999 174.394H184.206V185.206H57.1999H27.8374H26.3793L26.9125 186.563C29.7985 193.909 35.6819 199.994 44.3999 199.994H165.006V210.806H44.3999C27.3518 210.806 13.3937 196.848 13.3937 179.8C13.3938 178.366 13.9634 176.991 14.9773 175.977C15.9912 174.964 17.3662 174.394 18.7999 174.394H35.1624ZM241.85 116.794H242.977L242.836 115.675C242.122 110.036 241.147 104.857 240.223 99.9501C239.944 98.4674 239.67 97.0094 239.409 95.5711C238.28 89.3537 237.394 83.4799 237.394 77.4C237.394 63.8859 248.486 52.7938 262 52.7938C275.514 52.7938 286.606 63.8859 286.606 77.4C286.606 83.4799 285.72 89.3537 284.591 95.5711C284.33 97.0095 284.056 98.4675 283.777 99.9503C282.853 104.857 281.878 110.036 281.164 115.675L281.022 116.794H282.15H306.8C316.779 116.794 325.006 125.021 325.006 135V186.2C325.006 199.714 313.914 210.806 300.4 210.806H185.2H179.794V199.994H185.2C192.895 199.994 198.994 193.896 198.994 186.2V135C198.994 125.021 207.221 116.794 217.2 116.794H241.85ZM269.404 121.873L269.404 121.872C270.036 111.318 271.622 103.037 273.057 95.9876C273.168 95.4405 273.279 94.9002 273.388 94.3662C274.682 88.0488 275.794 82.6193 275.794 77.4C275.794 69.7045 269.695 63.6063 262 63.6063C254.304 63.6063 248.206 69.7045 248.206 77.4C248.206 82.6192 249.318 88.0487 250.611 94.366C250.721 94.9001 250.831 95.4405 250.943 95.9876C252.378 103.037 253.964 111.318 254.595 121.872L254.596 121.873L254.944 127.606H217.2C213.035 127.606 209.806 130.835 209.806 135V141.4V142.394H210.8H313.2H314.194V141.4V135C314.194 130.835 310.965 127.606 306.8 127.606H269.056L269.404 121.873ZM210.8 153.206H209.806V154.2V186.2C209.806 190.71 208.219 194.751 205.984 198.49L205.086 199.994H206.837H300.4C308.095 199.994 314.194 193.896 314.194 186.2V154.2V153.206H313.2H210.8Z" stroke="url(#paint0_linear_767_794)" stroke-width="1.9875"/>
</g>
<g clip-path="url(#clip1_767_794)">
<path d="M35.1624 174.394H36.8927L36.0207 172.899C33.8919 169.251 32.5937 165.09 32.5937 160.6V19.8C32.5937 6.23045 43.6303 -4.80624 57.1999 -4.80624H274.8C288.37 -4.80624 299.406 6.23045 299.406 19.8V65.0665C297.263 58.6166 293.491 52.9064 288.594 48.4101V19.8C288.594 12.192 282.408 6.00627 274.8 6.00627H57.1999C49.5919 6.00627 43.4062 12.192 43.4062 19.8V160.6C43.4062 168.208 49.5919 174.394 57.1999 174.394H184.206V185.206H57.1999H27.8374H26.3793L26.9125 186.563C29.7985 193.909 35.6819 199.994 44.3999 199.994H165.006V210.806H44.3999C27.3518 210.806 13.3937 196.848 13.3937 179.8C13.3938 178.366 13.9634 176.991 14.9773 175.977C15.9912 174.964 17.3662 174.394 18.7999 174.394H35.1624ZM241.85 116.794H242.977L242.836 115.675C242.122 110.036 241.147 104.857 240.223 99.9501C239.944 98.4674 239.67 97.0094 239.409 95.5711C238.28 89.3537 237.394 83.4799 237.394 77.4C237.394 63.8859 248.486 52.7938 262 52.7938C275.514 52.7938 286.606 63.8859 286.606 77.4C286.606 83.4799 285.72 89.3537 284.591 95.5711C284.33 97.0095 284.056 98.4675 283.777 99.9503C282.853 104.857 281.878 110.036 281.164 115.675L281.022 116.794H282.15H306.8C316.779 116.794 325.006 125.021 325.006 135V186.2C325.006 199.714 313.914 210.806 300.4 210.806H185.2H179.794V199.994H185.2C192.895 199.994 198.994 193.896 198.994 186.2V135C198.994 125.021 207.221 116.794 217.2 116.794H241.85ZM269.404 121.873L269.404 121.872C270.036 111.318 271.622 103.037 273.057 95.9876C273.168 95.4405 273.279 94.9002 273.388 94.3662C274.682 88.0488 275.794 82.6193 275.794 77.4C275.794 69.7045 269.695 63.6063 262 63.6063C254.304 63.6063 248.206 69.7045 248.206 77.4C248.206 82.6192 249.318 88.0487 250.611 94.366C250.721 94.9001 250.831 95.4405 250.943 95.9876C252.378 103.037 253.964 111.318 254.595 121.872L254.596 121.873L254.944 127.606H217.2C213.035 127.606 209.806 130.835 209.806 135V141.4V142.394H210.8H313.2H314.194V141.4V135C314.194 130.835 310.965 127.606 306.8 127.606H269.056L269.404 121.873ZM210.8 153.206H209.806V154.2V186.2C209.806 190.71 208.219 194.751 205.984 198.49L205.086 199.994H206.837H300.4C308.095 199.994 314.194 193.896 314.194 186.2V154.2V153.206H313.2H210.8Z" fill="url(#paint1_linear_767_794)" stroke="url(#paint2_linear_767_794)" stroke-width="1.9875"/>
</g>
</g>
<defs>
<filter id="filter0_f_767_794" x="-5.98462" y="-68.9846" width="343.969" height="343.969" filterUnits="userSpaceOnUse" color-interpolation-filters="sRGB">
<feFlood flood-opacity="0" result="BackgroundImageFix"/>
<feBlend mode="normal" in="SourceGraphic" in2="BackgroundImageFix" result="shape"/>
<feGaussianBlur stdDeviation="5.99231" result="effect1_foregroundBlur_767_794"/>
</filter>
<linearGradient id="paint0_linear_767_794" x1="326" y1="-5.79999" x2="122.164" y2="287.963" gradientUnits="userSpaceOnUse">
<stop offset="0.260417" stop-color="#8556E9"/>
<stop offset="1" stop-color="#578CF2"/>
</linearGradient>
<linearGradient id="paint1_linear_767_794" x1="326" y1="-5.79999" x2="122.164" y2="287.963" gradientUnits="userSpaceOnUse">
<stop stop-color="#8556E9"/>
<stop offset="0.645833" stop-color="#0EB6EA"/>
</linearGradient>
<linearGradient id="paint2_linear_767_794" x1="326" y1="-5.79999" x2="122.164" y2="287.963" gradientUnits="userSpaceOnUse">
<stop stop-color="#8556E9"/>
<stop offset="0.645833" stop-color="#0EB6EA"/>
</linearGradient>
<clipPath id="clip0_767_794">
<rect width="320" height="320" fill="white" transform="translate(6 -57)"/>
</clipPath>
<clipPath id="clip1_767_794">
<rect width="320" height="320" fill="white" transform="translate(6 -57)"/>
</clipPath>
</defs>
</svg>
