<svg width="32" height="32" viewBox="0 0 32 32" fill="none" xmlns="http://www.w3.org/2000/svg">
<g clip-path="url(#clip0_1904_705)">
<path d="M1.28 0.640015C0.945 0.640015 0.6025 0.757515 0.36 1.00001C0.1175 1.24251 0 1.58501 0 1.92001V24.96C0 25.295 0.1175 25.6375 0.36 25.88C0.6025 26.1225 0.945 26.24 1.28 26.24H12.16V27.52H9.54C8.4875 27.52 7.68 28.425 7.68 29.44V31.36H24.32V29.44C24.32 28.3875 23.485 27.52 22.46 27.52H19.84V26.24H30.72C31.055 26.24 31.3975 26.1225 31.64 25.88C31.8825 25.6375 32 25.295 32 24.96V1.92001C32 1.58501 31.8825 1.24251 31.64 1.00001C31.3975 0.757515 31.055 0.640015 30.72 0.640015H1.28ZM1.28 1.92001H30.72V24.96H19.32C19.235 24.9425 19.145 24.9425 19.06 24.96H12.92C12.835 24.9425 12.745 24.9425 12.66 24.96H1.28V1.92001ZM3.84 3.20001C3.505 3.20001 3.1625 3.31751 2.92 3.56001C2.6775 3.80251 2.56 4.14501 2.56 4.48001V19.84C2.56 20.175 2.6775 20.5175 2.92 20.76C3.1625 21.0025 3.505 21.12 3.84 21.12H28.16C28.495 21.12 28.8375 21.0025 29.08 20.76C29.3225 20.5175 29.44 20.175 29.44 19.84V4.48001C29.44 4.14501 29.3225 3.80251 29.08 3.56001C28.8375 3.31751 28.495 3.20001 28.16 3.20001H3.84ZM3.84 4.48001H28.16V19.84H3.84V4.48001ZM16 5.76001C15.235 5.76001 14.69 6.14001 13.96 6.52001C13.23 6.90001 12.2775 7.36251 10.74 7.70001C10.45 7.76501 10.2425 8.02251 10.24 8.32001C10.24 12.0875 11.5975 14.6475 12.96 16.24C14.3225 17.8325 15.74 18.5 15.74 18.5C15.91 18.58 16.11 18.58 16.28 18.5C16.28 18.5 21.76 15.67 21.76 8.32001C21.7575 8.02251 21.55 7.76501 21.26 7.70001C19.7225 7.36251 18.77 6.90001 18.04 6.52001C17.31 6.14001 16.765 5.76001 16 5.76001ZM16 7.04001C16.2575 7.04001 16.6675 7.25751 17.44 7.66001C18.115 8.01251 19.115 8.43251 20.44 8.78001C20.235 14.56 16.655 16.8075 15.98 17.18C15.6575 17.0075 14.8875 16.5525 13.92 15.42C12.78 14.0875 11.6675 11.965 11.56 8.78001C12.885 8.43251 13.885 8.01251 14.56 7.66001C15.3325 7.25751 15.7425 7.04001 16 7.04001ZM26.88 21.76C26.175 21.76 25.6 22.335 25.6 23.04C25.6 23.745 26.175 24.32 26.88 24.32C27.585 24.32 28.16 23.745 28.16 23.04C28.16 22.335 27.585 21.76 26.88 21.76ZM13.44 26.24H18.56V27.52H13.44V26.24ZM9.54 28.8H22.46C22.715 28.8 23.04 29.085 23.04 29.44V30.08H8.96V29.44C8.96 29.0475 9.185 28.8 9.54 28.8Z" fill="#9097AB"/>
</g>
<defs>
<clipPath id="clip0_1904_705">
<rect width="32" height="32" fill="white"/>
</clipPath>
</defs>
</svg>
