<svg width="32" height="32" viewBox="0 0 32 32" fill="none" xmlns="http://www.w3.org/2000/svg">
<path d="M5.12001 5.12C3.70817 5.12 2.56001 6.26816 2.56001 7.68V21.76C2.56001 22.2286 2.69562 22.6618 2.91626 23.04H1.28001C1.11028 23.04 0.947505 23.1074 0.827485 23.2275C0.707465 23.3475 0.640032 23.5103 0.640015 23.68C0.640015 25.4397 2.08032 26.88 3.84001 26.88H16V25.6H3.84001C3.02347 25.6 2.4635 25.032 2.18376 24.32H5.12001H17.92V23.04H5.12001C4.41409 23.04 3.84001 22.4659 3.84001 21.76V7.68C3.84001 6.97408 4.41409 6.4 5.12001 6.4H26.88C27.5859 6.4 28.16 6.97408 28.16 7.68V10.585C28.9434 11.2884 29.44 12.3059 29.44 13.44V7.68C29.44 6.26816 28.2919 5.12 26.88 5.12H5.12001ZM25.6 10.88C24.1937 10.88 23.04 12.0337 23.04 13.44C23.04 14.6746 23.3999 15.8184 23.585 17.28H21.12C20.0672 17.28 19.2 18.1472 19.2 19.2V24.32C19.2 25.0347 18.6347 25.6 17.92 25.6H17.28V26.88H17.92H29.44C30.8463 26.88 32 25.7263 32 24.32V19.2C32 18.1472 31.1328 17.28 30.08 17.28H27.615C27.8001 15.8184 28.16 14.6746 28.16 13.44C28.16 12.0337 27.0063 10.88 25.6 10.88ZM25.6 12.16C26.3147 12.16 26.88 12.7253 26.88 13.44C26.88 14.5472 26.3685 15.7562 26.2413 17.8812L26.2 18.56H30.08C30.4416 18.56 30.72 18.8384 30.72 19.2V19.84H20.48V19.2C20.48 18.8384 20.7584 18.56 21.12 18.56H25L24.9588 17.8812C24.8316 15.7562 24.32 14.5472 24.32 13.44C24.32 12.7253 24.8853 12.16 25.6 12.16ZM20.48 21.12H30.72V24.32C30.72 25.0347 30.1547 25.6 29.44 25.6H20.0838C20.3126 25.2172 20.48 24.7953 20.48 24.32V21.12Z" fill="#9097AB"/>
</svg>
