<svg width="118" height="56" viewBox="0 0 118 56" fill="none" xmlns="http://www.w3.org/2000/svg">
<path d="M56.2435 4.58182V0.509091C56.2435 0.229091 56.0134 0 55.7322 0H31.1896C30.9083 0 30.6783 0.229091 30.6783 0.509091V24.9455C30.6783 25.2255 30.9083 25.4545 31.1896 25.4545H55.7322C56.0134 25.4545 56.2435 25.2255 56.2435 24.9455V20.8727C56.2435 20.5927 56.0134 20.3636 55.7322 20.3636H36.3026C36.0214 20.3636 35.7913 20.1345 35.7913 19.8545V15.7818C35.7913 15.5018 36.0214 15.2727 36.3026 15.2727H42.9496C43.2308 15.2727 43.4609 15.0436 43.4609 14.7636V10.6909C43.4609 10.4109 43.2308 10.1818 42.9496 10.1818H36.3026C36.0214 10.1818 35.7913 9.95273 35.7913 9.67273V5.6C35.7913 5.32 36.0214 5.09091 36.3026 5.09091H55.7322C56.0134 5.09091 56.2435 4.86182 56.2435 4.58182Z" fill="url(#paint0_linear_611_151)"/>
<path d="M20.4522 46.8364V31.0545C20.4522 30.7745 20.6823 30.5455 20.9635 30.5455H25.0539C25.3351 30.5455 25.5652 30.7745 25.5652 31.0545V55.4909C25.5652 55.7709 25.3351 56 25.0539 56H20.6859C20.5375 56 20.3964 55.9358 20.2992 55.824L6.00783 39.3782C5.70104 39.0218 5.11304 39.2255 5.11304 39.7091V55.4909C5.11304 55.7709 4.88296 56 4.60174 56H0.511304C0.230087 56 0 55.7709 0 55.4909V31.0545C0 30.7745 0.230087 30.5455 0.511304 30.5455H4.87931C5.02775 30.5455 5.16885 30.6097 5.26597 30.7214L19.5574 47.1673C19.8642 47.5236 20.4522 47.32 20.4522 46.8364Z" fill="url(#paint1_linear_611_151)"/>
<path fill-rule="evenodd" clip-rule="evenodd" d="M117.6 44.0109V55.4909C117.6 55.7721 117.371 56 117.089 56H92.5461C92.2649 56 92.0348 55.7709 92.0348 55.4909V31.0545C92.0348 30.7745 92.2649 30.5455 92.5461 30.5455H105.866C106.019 30.5455 106.147 30.6218 106.249 30.7236L110.058 35.1273L117.472 43.68C117.549 43.7818 117.6 43.8836 117.6 44.0109ZM97.1478 36.1709V50.4255C97.1478 50.7055 97.3779 50.9345 97.6591 50.9345H111.976C112.257 50.9345 112.487 50.7055 112.487 50.4255V45.92C112.487 45.7927 112.436 45.6909 112.359 45.5891L103.897 35.84C103.795 35.7382 103.667 35.6618 103.514 35.6618H97.6591C97.3779 35.6618 97.1478 35.8909 97.1478 36.1709Z" fill="url(#paint2_linear_611_151)"/>
<path d="M86.9217 31.0545V35.1273C86.9217 35.4073 86.6917 35.6364 86.4104 35.6364H77.207C76.9257 35.6364 76.6956 35.8655 76.6956 36.1455V50.4C76.6956 50.68 76.9257 50.9091 77.207 50.9091H86.4104C86.6917 50.9091 86.9217 51.1382 86.9217 51.4182V55.4909C86.9217 55.7709 86.6917 56 86.4104 56H61.8678C61.5866 56 61.3565 55.7709 61.3565 55.4909V51.4182C61.3565 51.1382 61.5866 50.9091 61.8678 50.9091H71.0713C71.3525 50.9091 71.5826 50.68 71.5826 50.4V36.1455C71.5826 35.8655 71.3525 35.6364 71.0713 35.6364H61.8678C61.5866 35.6364 61.3565 35.4073 61.3565 35.1273V31.0545C61.3565 30.7745 61.5866 30.5455 61.8678 30.5455H86.4104C86.6917 30.5455 86.9217 30.7745 86.9217 31.0545Z" fill="url(#paint3_linear_611_151)"/>
<path fill-rule="evenodd" clip-rule="evenodd" d="M31.1896 30.5455C30.9083 30.5455 30.6783 30.7745 30.6783 31.0545V55.4909C30.6783 55.7709 30.9083 56 31.1896 56H55.7322C56.0134 56 56.2435 55.7709 56.2435 55.4909V31.0545C56.2435 30.7745 56.0134 30.5455 55.7322 30.5455H31.1896ZM50.6191 50.9091H36.3026C36.0214 50.9091 35.7913 50.68 35.7913 50.4V36.1455C35.7913 35.8655 36.0214 35.6364 36.3026 35.6364H50.6191C50.9003 35.6364 51.1304 35.8655 51.1304 36.1455V50.4C51.1304 50.68 50.9003 50.9091 50.6191 50.9091Z" fill="url(#paint4_linear_611_151)"/>
<path fill-rule="evenodd" clip-rule="evenodd" d="M110.058 4.57724L117.472 13.1214C117.549 13.2231 117.6 13.3249 117.6 13.452V24.946C117.6 25.2257 117.37 25.4545 117.089 25.4545H112.998C112.717 25.4545 112.487 25.2257 112.487 24.946V15.7915C112.487 15.5118 112.257 15.2829 111.976 15.2829H97.6591C97.3779 15.2829 97.1478 15.5118 97.1478 15.7915V24.9205C97.1478 25.2003 96.9177 25.4291 96.6365 25.4291H92.5461C92.2649 25.4291 92.0348 25.2003 92.0348 24.9205V0.508582C92.0348 0.228862 92.2649 0 92.5461 0H105.866C106.019 0 106.147 0.0762875 106.249 0.178004L110.058 4.57724ZM103.514 5.11125H97.6591C97.3779 5.11125 97.1478 5.34011 97.1478 5.61983V9.68849C97.1478 9.96821 97.3779 10.1971 97.6591 10.1971H107.042C107.476 10.1971 107.706 9.68849 107.425 9.35791L103.897 5.28926C103.795 5.18754 103.667 5.11125 103.514 5.11125Z" fill="url(#paint5_linear_611_151)"/>
<path d="M86.4104 0H82.0388C81.8854 0 81.7576 0.0763638 81.6553 0.178182L67.3643 16.6473C67.0576 17.0036 66.4696 16.7745 66.4696 16.3164V0.509091C66.4696 0.229091 66.2395 0 65.9583 0H61.8678C61.5866 0 61.3565 0.229091 61.3565 0.509091V24.9455C61.3565 25.2255 61.5866 25.4545 61.8678 25.4545H66.2395C66.3929 25.4545 66.5207 25.3782 66.6229 25.2764L73.7301 17.0291C73.9346 16.8 74.2925 16.8 74.497 17.0291L81.6553 25.2764C81.7576 25.3782 81.8854 25.4545 82.0388 25.4545H86.4104C86.6917 25.4545 86.9217 25.2255 86.9217 24.9455V23.9273C86.9217 23.8 86.8706 23.6982 86.7939 23.5964L77.7183 13.0582C77.5649 12.88 77.5649 12.5745 77.7183 12.3964L86.7939 1.85818C86.8706 1.75636 86.9217 1.65455 86.9217 1.52727V0.509091C86.9217 0.229091 86.6917 0 86.4104 0Z" fill="url(#paint6_linear_611_151)"/>
<path d="M20.3197 0.176148C20.4168 0.0642886 20.558 0 20.7065 0H25.0534C25.3349 0 25.5652 0.229091 25.5652 0.509091V24.9455C25.5652 25.2255 25.3349 25.4545 25.0534 25.4545H20.9589C20.6774 25.4545 20.4471 25.2255 20.4471 24.9455V9.16364C20.4471 8.70545 19.8585 8.47636 19.5514 8.83273L16.1478 12.7273L14.1005 15.0945C13.9982 15.1964 13.8702 15.2727 13.7167 15.2727H11.8485C11.695 15.2727 11.567 15.1964 11.4647 15.0945L9.41741 12.7273L6.01384 8.83273C5.70675 8.47636 5.11816 8.68 5.11816 9.16364V24.9455C5.11816 25.2255 4.88784 25.4545 4.60634 25.4545H0.511816C0.230317 25.4545 0 25.2255 0 24.9455V0.509091C0 0.229091 0.230317 0 0.511816 0H4.88784C5.04138 0 5.16934 0.0763638 5.2717 0.178182L12.4115 8.4C12.6163 8.62909 12.9745 8.62909 13.1793 8.4L20.3197 0.176148Z" fill="url(#paint7_linear_611_151)"/>
<defs>
<linearGradient id="paint0_linear_611_151" x1="117.6" y1="0" x2="74.125" y2="91.2976" gradientUnits="userSpaceOnUse">
<stop offset="0.244792" stop-color="#0EB6EA"/>
<stop offset="0.807292" stop-color="#42FCFF"/>
</linearGradient>
<linearGradient id="paint1_linear_611_151" x1="117.6" y1="0" x2="74.125" y2="91.2976" gradientUnits="userSpaceOnUse">
<stop offset="0.244792" stop-color="#0EB6EA"/>
<stop offset="0.807292" stop-color="#42FCFF"/>
</linearGradient>
<linearGradient id="paint2_linear_611_151" x1="117.6" y1="0" x2="74.125" y2="91.2976" gradientUnits="userSpaceOnUse">
<stop offset="0.244792" stop-color="#0EB6EA"/>
<stop offset="0.807292" stop-color="#42FCFF"/>
</linearGradient>
<linearGradient id="paint3_linear_611_151" x1="117.6" y1="0" x2="74.125" y2="91.2976" gradientUnits="userSpaceOnUse">
<stop offset="0.244792" stop-color="#0EB6EA"/>
<stop offset="0.807292" stop-color="#42FCFF"/>
</linearGradient>
<linearGradient id="paint4_linear_611_151" x1="117.6" y1="0" x2="74.125" y2="91.2976" gradientUnits="userSpaceOnUse">
<stop offset="0.244792" stop-color="#0EB6EA"/>
<stop offset="0.807292" stop-color="#42FCFF"/>
</linearGradient>
<linearGradient id="paint5_linear_611_151" x1="117.6" y1="0" x2="74.125" y2="91.2976" gradientUnits="userSpaceOnUse">
<stop offset="0.244792" stop-color="#0EB6EA"/>
<stop offset="0.807292" stop-color="#42FCFF"/>
</linearGradient>
<linearGradient id="paint6_linear_611_151" x1="117.6" y1="0" x2="74.125" y2="91.2976" gradientUnits="userSpaceOnUse">
<stop offset="0.244792" stop-color="#0EB6EA"/>
<stop offset="0.807292" stop-color="#42FCFF"/>
</linearGradient>
<linearGradient id="paint7_linear_611_151" x1="117.6" y1="0" x2="74.125" y2="91.2976" gradientUnits="userSpaceOnUse">
<stop offset="0.244792" stop-color="#0EB6EA"/>
<stop offset="0.807292" stop-color="#42FCFF"/>
</linearGradient>
</defs>
</svg>
