<svg width="60" height="60" viewBox="0 0 60 60" fill="none" xmlns="http://www.w3.org/2000/svg">
<g clip-path="url(#clip0_745_5021)">
<path d="M52 42.54C52 42.44 51.96 42.36 51.9 42.28L46.1 35.56L43.12 32.1C43.04 32.02 42.94 31.96 42.82 31.96H32.4C32.18 31.96 32 32.14 32 32.36V51.56C32 51.78 32.18 51.96 32.4 51.96H51.6C51.8209 51.96 52 51.7809 52 51.56V42.54ZM36 47.58V36.38C36 36.16 36.18 35.98 36.4 35.98H40.98C41.1 35.98 41.2 36.04 41.28 36.12L47.9 43.78C47.96 43.86 48 43.94 48 44.04V47.58C48 47.8 47.82 47.98 47.6 47.98H36.4C36.18 47.98 36 47.8 36 47.58Z" fill="white"/>
<path d="M55 3.95996C55.56 3.95996 56 4.39996 56 4.95996V54.96C56 55.52 55.56 55.96 55 55.96H5C4.44 55.96 4 55.52 4 54.96V4.95996C4 4.39996 4.44 3.95996 5 3.95996H55ZM55 1.95996H5C3.34 1.95996 2 3.29996 2 4.95996V54.96C2 56.62 3.34 57.96 5 57.96H55C56.66 57.96 58 56.62 58 54.96V4.95996C58 3.29996 56.66 1.95996 55 1.95996ZM23.88 8.09996L18.3 14.56C18.14 14.74 17.86 14.74 17.7 14.56L12.12 8.09996C12.04 8.01996 11.94 7.95996 11.82 7.95996H8.4C8.18 7.95996 8 8.13996 8 8.35996V27.56C8 27.78 8.18 27.96 8.4 27.96H11.6C11.82 27.96 12 27.78 12 27.56V15.16C12 14.78 12.46 14.62 12.7 14.9L15.36 17.96L16.96 19.82C17.04 19.9 17.14 19.96 17.26 19.96H18.72C18.84 19.96 18.94 19.9 19.02 19.82L20.62 17.96L23.28 14.9C23.52 14.62 23.98 14.8 23.98 15.16V27.56C23.98 27.78 24.16 27.96 24.38 27.96H27.58C27.8 27.96 27.98 27.78 27.98 27.56V8.35996C27.98 8.13996 27.8 7.95996 27.58 7.95996H24.16C24.06 7.95996 23.96 8.01996 23.88 8.09996Z" fill="white"/>
<path d="M48.18 7.93996H51.6C51.82 7.93996 52 8.11996 52 8.33996V9.13996C52 9.23996 51.96 9.31996 51.9 9.39996L44.8 17.68C44.68 17.82 44.68 18.06 44.8 18.2L51.9 26.5C51.96 26.58 52 26.66 52 26.76V27.56C52 27.78 51.82 27.96 51.6 27.96H48.18C48.06 27.96 47.96 27.9 47.88 27.82L42.28 21.34C42.12 21.16 41.84 21.16 41.68 21.34L36.12 27.82C36.04 27.9 35.94 27.96 35.82 27.96H32.4C32.18 27.96 32 27.78 32 27.56V8.35996C32 8.13996 32.18 7.95996 32.4 7.95996H35.6C35.82 7.95996 36 8.13996 36 8.35996V20.76C36 21.12 36.46 21.3 36.7 21.02L47.88 8.07996C47.96 7.99996 48.06 7.93996 48.18 7.93996Z" fill="white"/>
<path d="M24 32.36V44.76C24 45.14 23.54 45.3 23.3 45.02L12.1196 32.0982C12.0437 32.0104 11.9333 31.96 11.8172 31.96H8.4C8.18 31.96 8 32.14 8 32.36V51.56C8 51.78 8.18 51.96 8.4 51.96H11.6C11.82 51.96 12 51.78 12 51.56V39.16C12 38.78 12.46 38.62 12.7 38.9L23.8804 51.8217C23.9563 51.9095 24.0667 51.96 24.1829 51.96H27.6C27.82 51.96 28 51.78 28 51.56V32.36C28 32.14 27.82 31.96 27.6 31.96H24.4C24.18 31.96 24 32.14 24 32.36Z" fill="white"/>
</g>
<defs>
<clipPath id="clip0_745_5021">
<rect width="60" height="60" fill="white"/>
</clipPath>
</defs>
</svg>
