<svg width="32" height="32" viewBox="0 0 32 32" fill="none" xmlns="http://www.w3.org/2000/svg">
<path d="M13.365 2.54626C7.36346 2.54626 2.48499 7.42474 2.48499 13.4263C2.48499 19.4278 7.36346 24.3063 13.365 24.3063C15.7408 24.3063 17.9341 23.5336 19.725 22.2375L28.14 30.6513L29.95 28.8413L21.6125 20.5038C23.2491 18.5993 24.245 16.1297 24.245 13.4263C24.245 7.42474 19.3665 2.54626 13.365 2.54626ZM13.365 3.82626C18.6748 3.82626 22.965 8.11643 22.965 13.4263C22.965 18.7361 18.6748 23.0263 13.365 23.0263C8.05515 23.0263 3.76499 18.7361 3.76499 13.4263C3.76499 8.11643 8.05515 3.82626 13.365 3.82626ZM13.44 6.40001C11.2255 6.40001 9.05597 7.49782 7.70749 9.20251C7.65526 9.26842 7.61653 9.34397 7.5935 9.42484C7.57047 9.50572 7.56361 9.59034 7.57329 9.67387C7.58297 9.7574 7.60901 9.8382 7.64993 9.91167C7.69085 9.98513 7.74583 10.0498 7.81175 10.102C7.87767 10.1542 7.95323 10.1929 8.03411 10.216C8.11499 10.239 8.19962 10.2458 8.28314 10.2361C8.36667 10.2264 8.44747 10.2003 8.52092 10.1594C8.59438 10.1185 8.65904 10.0634 8.71124 9.99751C9.80499 8.61485 11.6596 7.68001 13.44 7.68001C13.5248 7.68121 13.609 7.66555 13.6877 7.63392C13.7664 7.6023 13.838 7.55535 13.8984 7.4958C13.9588 7.43625 14.0068 7.36529 14.0395 7.28705C14.0722 7.2088 14.0891 7.12483 14.0891 7.04001C14.0891 6.9552 14.0722 6.87123 14.0395 6.79298C14.0068 6.71474 13.9588 6.64378 13.8984 6.58423C13.838 6.52468 13.7664 6.47773 13.6877 6.44611C13.609 6.41448 13.5248 6.39881 13.44 6.40001ZM16.0037 6.93876C15.8547 6.93616 15.7095 6.98564 15.5931 7.07866C15.4766 7.17168 15.3963 7.30241 15.3659 7.44831C15.3356 7.59422 15.3571 7.74614 15.4267 7.87789C15.4964 8.00964 15.6098 8.11295 15.7475 8.17001C17.6974 9.00534 19.2 10.8055 19.2 12.8V16C19.1988 16.0848 19.2145 16.169 19.2461 16.2477C19.2777 16.3264 19.3247 16.3981 19.3842 16.4584C19.4438 16.5188 19.5147 16.5668 19.593 16.5995C19.6712 16.6323 19.7552 16.6491 19.84 16.6491C19.9248 16.6491 20.0088 16.6323 20.087 16.5995C20.1653 16.5668 20.2362 16.5188 20.2958 16.4584C20.3553 16.3981 20.4023 16.3264 20.4339 16.2477C20.4655 16.169 20.4812 16.0848 20.48 16V12.8C20.48 10.1789 18.5932 7.99652 16.2525 6.99376C16.1741 6.95895 16.0895 6.94024 16.0037 6.93876ZM13.44 8.96001C12.3835 8.96001 11.3125 9.36774 10.4625 10.0338C9.61245 10.6998 8.95999 11.6662 8.95999 12.8V18.56C8.95879 18.6448 8.97445 18.729 9.00608 18.8077C9.0377 18.8864 9.08466 18.9581 9.1442 19.0184C9.20375 19.0788 9.27471 19.1268 9.35296 19.1595C9.4312 19.1923 9.51517 19.2091 9.59999 19.2091C9.6848 19.2091 9.76877 19.1923 9.84702 19.1595C9.92526 19.1268 9.99622 19.0788 10.0558 19.0184C10.1153 18.9581 10.1623 18.8864 10.1939 18.8077C10.2255 18.729 10.2412 18.6448 10.24 18.56V12.8C10.24 12.1668 10.6243 11.5335 11.2525 11.0413C11.8807 10.549 12.7295 10.24 13.44 10.24C14.1505 10.24 14.9993 10.549 15.6275 11.0413C16.2557 11.5335 16.64 12.1668 16.64 12.8C16.6388 12.8848 16.6545 12.969 16.6861 13.0477C16.7177 13.1264 16.7647 13.1981 16.8242 13.2584C16.8838 13.3188 16.9547 13.3668 17.033 13.3995C17.1112 13.4323 17.1952 13.4491 17.28 13.4491C17.3648 13.4491 17.4488 13.4323 17.527 13.3995C17.6053 13.3668 17.6762 13.3188 17.7358 13.2584C17.7953 13.1981 17.8423 13.1264 17.8739 13.0477C17.9055 12.969 17.9212 12.8848 17.92 12.8C17.92 11.6662 17.2675 10.6998 16.4175 10.0338C15.5675 9.36774 14.4965 8.96001 13.44 8.96001ZM7.02999 12.1513C6.86047 12.1539 6.69892 12.2237 6.58081 12.3453C6.4627 12.467 6.39766 12.6305 6.39999 12.8V16.64C6.39879 16.7248 6.41445 16.809 6.44608 16.8877C6.4777 16.9664 6.52466 17.0381 6.5842 17.0984C6.64375 17.1588 6.71471 17.2068 6.79295 17.2395C6.8712 17.2723 6.95517 17.2891 7.03999 17.2891C7.1248 17.2891 7.20877 17.2723 7.28702 17.2395C7.36526 17.2068 7.43622 17.1588 7.49577 17.0984C7.55532 17.0381 7.60227 16.9664 7.63389 16.8877C7.66552 16.809 7.68119 16.7248 7.67999 16.64V12.8C7.68116 12.7144 7.66514 12.6294 7.63287 12.5501C7.60061 12.4708 7.55275 12.3987 7.49214 12.3382C7.43153 12.2777 7.3594 12.23 7.28001 12.1979C7.20063 12.1658 7.11561 12.1499 7.02999 12.1513ZM13.44 12.16C12.3872 12.16 11.52 13.0272 11.52 14.08C11.5188 14.1648 11.5345 14.249 11.5661 14.3277C11.5977 14.4064 11.6447 14.4781 11.7042 14.5384C11.7638 14.5988 11.8347 14.6468 11.913 14.6795C11.9912 14.7123 12.0752 14.7291 12.16 14.7291C12.2448 14.7291 12.3288 14.7123 12.407 14.6795C12.4853 14.6468 12.5562 14.5988 12.6158 14.5384C12.6753 14.4781 12.7223 14.4064 12.7539 14.3277C12.7855 14.249 12.8012 14.1648 12.8 14.08C12.8 13.7184 13.0784 13.44 13.44 13.44C13.8016 13.44 14.08 13.7184 14.08 14.08V16C14.0788 16.0848 14.0945 16.169 14.1261 16.2477C14.1577 16.3264 14.2047 16.3981 14.2642 16.4584C14.3238 16.5188 14.3947 16.5668 14.473 16.5995C14.5512 16.6323 14.6352 16.6491 14.72 16.6491C14.8048 16.6491 14.8888 16.6323 14.967 16.5995C15.0453 16.5668 15.1162 16.5188 15.1758 16.4584C15.2353 16.3981 15.2823 16.3264 15.3139 16.2477C15.3455 16.169 15.3612 16.0848 15.36 16V14.08C15.36 13.0272 14.4928 12.16 13.44 12.16ZM17.27 15.3513C17.1005 15.3539 16.9389 15.4237 16.8208 15.5453C16.7027 15.667 16.6377 15.8305 16.64 16V17.92C16.6388 18.0048 16.6545 18.089 16.6861 18.1677C16.7177 18.2464 16.7647 18.3181 16.8242 18.3784C16.8838 18.4388 16.9547 18.4868 17.033 18.5195C17.1112 18.5523 17.1952 18.5691 17.28 18.5691C17.3648 18.5691 17.4488 18.5523 17.527 18.5195C17.6053 18.4868 17.6762 18.4388 17.7358 18.3784C17.7953 18.3181 17.8423 18.2464 17.8739 18.1677C17.9055 18.089 17.9212 18.0048 17.92 17.92V16C17.9212 15.9144 17.9051 15.8294 17.8729 15.7501C17.8406 15.6708 17.7928 15.5987 17.7321 15.5382C17.6715 15.4777 17.5994 15.43 17.52 15.3979C17.4406 15.3658 17.3556 15.3499 17.27 15.3513ZM12.15 15.9913C11.9805 15.9939 11.8189 16.0637 11.7008 16.1853C11.5827 16.307 11.5177 16.4705 11.52 16.64V19.2C11.5188 19.2848 11.5345 19.369 11.5661 19.4477C11.5977 19.5264 11.6447 19.598 11.7042 19.6584C11.7638 19.7188 11.8347 19.7668 11.913 19.7995C11.9912 19.8323 12.0752 19.8491 12.16 19.8491C12.2448 19.8491 12.3288 19.8323 12.407 19.7995C12.4853 19.7668 12.5562 19.7188 12.6158 19.6584C12.6753 19.598 12.7223 19.5264 12.7539 19.4477C12.7855 19.369 12.8012 19.2848 12.8 19.2V16.64C12.8012 16.5544 12.7851 16.4694 12.7529 16.3901C12.7206 16.3108 12.6728 16.2387 12.6121 16.1782C12.5515 16.1177 12.4794 16.07 12.4 16.0379C12.3206 16.0058 12.2356 15.9899 12.15 15.9913ZM14.71 17.9113C14.5405 17.9139 14.3789 17.9837 14.2608 18.1053C14.1427 18.227 14.0777 18.3905 14.08 18.56V19.84C14.0788 19.9248 14.0945 20.009 14.1261 20.0877C14.1577 20.1664 14.2047 20.238 14.2642 20.2984C14.3238 20.3588 14.3947 20.4068 14.473 20.4395C14.5512 20.4723 14.6352 20.4891 14.72 20.4891C14.8048 20.4891 14.8888 20.4723 14.967 20.4395C15.0453 20.4068 15.1162 20.3588 15.1758 20.2984C15.2353 20.238 15.2823 20.1664 15.3139 20.0877C15.3455 20.009 15.3612 19.9248 15.36 19.84V18.56C15.3612 18.4744 15.3451 18.3894 15.3129 18.3101C15.2806 18.2308 15.2328 18.1587 15.1721 18.0982C15.1115 18.0377 15.0394 17.99 14.96 17.9579C14.8806 17.9258 14.7956 17.9099 14.71 17.9113Z" fill="#9097AB"/>
</svg>
