<svg width="32" height="32" viewBox="0 0 32 32" fill="none" xmlns="http://www.w3.org/2000/svg">
<g clip-path="url(#clip0_1904_704)">
<path d="M3.2 2.56C2.84608 2.56 2.56 2.84608 2.56 3.2V28.8C2.56 29.1539 2.84608 29.44 3.2 29.44H17.9562C17.6964 29.0349 17.4669 28.6093 17.28 28.16H3.84V3.84H28.16V17.28C28.6093 17.4675 29.0349 17.6977 29.44 17.9575V3.2C29.44 2.84608 29.1539 2.56 28.8 2.56H3.2ZM13.44 5.76C12.3869 5.76 11.52 6.62691 11.52 7.68C11.52 7.76434 11.5367 7.84784 11.5691 7.92571C11.6015 8.00358 11.6489 8.07428 11.7087 8.13375C11.9345 8.9428 12.5632 9.6 13.44 9.6H18.56C19.4368 9.6 20.0655 8.9428 20.2912 8.13375C20.3511 8.07428 20.3985 8.00358 20.4309 7.92571C20.4633 7.84784 20.48 7.76434 20.48 7.68C20.48 6.62691 19.6131 5.76 18.56 5.76H13.44ZM13.44 7.04H18.56C18.9149 7.04 19.2 7.32509 19.2 7.68C19.2 8.03491 18.9149 8.32 18.56 8.32H13.44C13.0851 8.32 12.8 8.03491 12.8 7.68C12.8 7.32509 13.0851 7.04 13.44 7.04ZM23.68 17.92L23.2962 19.9675C23.1042 20.0315 22.8482 20.0957 22.6562 20.2237L20.9275 19.0075L19.0075 20.9275L20.16 22.5275C20.096 22.7835 19.9677 22.9765 19.9037 23.2325L17.92 23.5525V26.24L19.9037 26.56C19.9677 26.752 20.032 27.008 20.16 27.2L19.0075 28.9275L20.9275 30.8475L22.6562 29.6962C22.9122 29.8242 23.104 29.8885 23.36 29.9525L23.68 32H26.3037L26.6875 30.0162C26.8795 29.9522 27.0715 29.888 27.3275 29.76L29.0562 30.9125L30.9762 28.9925L29.76 27.3275C29.888 27.0715 29.9522 26.8157 30.0162 26.6237L32 26.24V23.5525L29.9525 23.2325C29.8885 23.0405 29.8242 22.7845 29.6962 22.5925L30.8475 20.8637L28.9925 19.0075L27.3275 20.2237C27.1355 20.0957 26.8795 20.0315 26.6875 19.9675L26.3675 17.92H23.68ZM24.7675 19.2H25.28L25.5362 20.9275L25.92 21.0562C26.304 21.1842 26.6875 21.3117 27.0075 21.5037L27.3925 21.76L28.8637 20.6725L29.1837 20.9925L28.16 22.4637L28.3525 22.7837C28.5445 23.1677 28.672 23.5522 28.8 23.9362L28.9275 24.32L30.72 24.5762V25.0875L28.9925 25.4725L28.8637 25.8562C28.7357 26.2402 28.6082 26.6237 28.4162 26.9437L28.16 27.3275L29.2475 28.8L28.8637 29.1837L27.3925 28.16L27.0725 28.3525C26.6885 28.5445 26.304 28.672 25.92 28.8L25.5362 28.9275L25.2162 30.72H24.7037L24.4475 28.9925L24.0637 28.8637C23.6797 28.7357 23.2962 28.6082 22.9762 28.4162L22.5925 28.16L21.0562 29.1837L20.6725 28.8L21.6962 27.3275L21.5037 27.0075C21.3117 26.6235 21.1842 26.1762 21.0562 25.8562L20.9275 25.4725L19.2 25.1525V24.64L20.9925 24.32L21.0562 23.8725C21.1202 23.5525 21.248 23.1675 21.44 22.8475L21.6962 22.5275L20.6725 21.0562L21.0562 20.6725L22.5275 21.6962L22.8475 21.5675C23.2955 21.3755 23.6797 21.1842 24.0637 21.0562L24.4475 20.9925L24.7675 19.2ZM24.96 22.3362C23.552 22.3362 22.4 23.4882 22.4 24.8962C22.4 26.3042 23.552 27.4562 24.96 27.4562C26.368 27.4562 27.52 26.3682 27.52 24.8962C27.52 23.4882 26.368 22.3362 24.96 22.3362ZM24.96 23.68C25.664 23.68 26.24 24.192 26.24 24.96C26.24 25.664 25.664 26.24 24.96 26.24C24.256 26.24 23.68 25.664 23.68 24.96C23.68 24.256 24.256 23.68 24.96 23.68Z" fill="#9097AB"/>
</g>
<defs>
<clipPath id="clip0_1904_704">
<rect width="32" height="32" fill="white"/>
</clipPath>
</defs>
</svg>
