<svg width="16" height="16" viewBox="0 0 16 16" fill="none" xmlns="http://www.w3.org/2000/svg">
<g clip-path="url(#clip0_720_2641)">
<path d="M8 2C11.3 2 14 4.7 14 8C14 11.3 11.3 14 8 14C4.7 14 2 11.3 2 8C2 4.7 4.7 2 8 2ZM8 1C4.15 1 1 4.15 1 8C1 11.85 4.15 15 8 15C11.85 15 15 11.85 15 8C15 4.15 11.85 1 8 1Z" fill="white"/>
<path d="M4.7998 7.99995C4.7998 8.44178 5.15798 8.79995 5.5998 8.79995C6.04163 8.79995 6.3998 8.44178 6.3998 7.99995C6.3998 7.55812 6.04163 7.19995 5.5998 7.19995C5.15798 7.19995 4.7998 7.55812 4.7998 7.99995Z" fill="white"/>
<path d="M7.2002 7.99995C7.2002 8.44178 7.55837 8.79995 8.0002 8.79995C8.44202 8.79995 8.8002 8.44178 8.8002 7.99995C8.8002 7.55812 8.44202 7.19995 8.0002 7.19995C7.55837 7.19995 7.2002 7.55812 7.2002 7.99995Z" fill="white"/>
<path d="M9.6001 7.99995C9.6001 8.44178 9.95827 8.79995 10.4001 8.79995C10.8419 8.79995 11.2001 8.44178 11.2001 7.99995C11.2001 7.55812 10.8419 7.19995 10.4001 7.19995C9.95827 7.19995 9.6001 7.55812 9.6001 7.99995Z" fill="white"/>
</g>
<defs>
<clipPath id="clip0_720_2641">
<rect width="16" height="16" fill="white"/>
</clipPath>
</defs>
</svg>
