<svg width="180" height="263" viewBox="0 0 180 263" fill="none" xmlns="http://www.w3.org/2000/svg">
<g opacity="0.2">
<g filter="url(#filter0_f_767_743)">
<mask id="path-1-inside-1_767_743" fill="white">
<path d="M133.65 -31.5375C73.6349 -31.5375 24.8501 17.2473 24.8501 77.2625C24.8501 137.278 73.6349 186.063 133.65 186.063C157.409 186.063 179.342 178.336 197.25 165.375L281.4 249.513L299.5 231.413L216.125 148.038C232.491 128.993 242.45 104.297 242.45 77.2625C242.45 17.2473 193.665 -31.5375 133.65 -31.5375ZM133.65 -18.7375C186.749 -18.7375 229.65 24.1642 229.65 77.2625C229.65 130.361 186.749 173.263 133.65 173.263C80.5517 173.263 37.6501 130.361 37.6501 77.2625C37.6501 24.1642 80.5517 -18.7375 133.65 -18.7375ZM134.4 7.00003C112.255 7.00003 90.56 17.9781 77.0751 35.025C76.5528 35.6841 76.1655 36.4395 75.9352 37.2483C75.705 38.0571 75.6363 38.9033 75.7331 39.7386C75.8299 40.5739 76.0904 41.3819 76.4995 42.1166C76.9087 42.8512 77.4586 43.4981 78.1178 44.0202C78.777 44.5423 79.5325 44.9294 80.3414 45.1594C81.1502 45.3895 81.9964 45.4579 82.8317 45.3609C83.667 45.2638 84.4749 45.0031 85.2095 44.5938C85.944 44.1844 86.5907 43.6344 87.1126 42.975C98.0501 29.1484 116.597 19.8 134.4 19.8C135.248 19.812 136.09 19.6553 136.877 19.3391C137.664 19.0228 138.38 18.5533 138.984 17.9579C139.588 17.3624 140.068 16.6528 140.395 15.8703C140.723 15.0879 140.891 14.2482 140.891 13.4C140.891 12.5519 140.723 11.7122 140.395 10.9297C140.068 10.1473 139.588 9.43769 138.984 8.8422C138.38 8.24672 137.664 7.77721 136.877 7.46096C136.09 7.14471 135.248 6.98803 134.4 7.00003ZM160.038 12.3875C158.548 12.3615 157.095 12.8563 155.931 13.7865C154.766 14.7167 153.963 16.024 153.66 17.483C153.356 18.942 153.571 20.4613 154.267 21.7788C154.964 23.0963 156.098 24.1294 157.475 24.7C176.974 33.0533 192 51.0548 192 71V103C191.988 103.848 192.145 104.69 192.461 105.477C192.777 106.264 193.247 106.98 193.842 107.584C194.438 108.188 195.147 108.668 195.93 108.995C196.712 109.323 197.552 109.491 198.4 109.491C199.248 109.491 200.088 109.323 200.87 108.995C201.653 108.668 202.362 108.188 202.958 107.584C203.553 106.98 204.023 106.264 204.339 105.477C204.655 104.69 204.812 103.848 204.8 103V71C204.8 44.7885 185.932 22.965 162.525 12.9375C161.741 12.5894 160.895 12.4023 160.038 12.3875ZM134.4 32.6C123.835 32.6 113.125 36.6773 104.625 43.3375C96.1248 49.9978 89.6001 59.6622 89.6001 71V128.6C89.5881 129.448 89.7448 130.29 90.061 131.077C90.3773 131.864 90.8468 132.58 91.4423 133.184C92.0378 133.788 92.7474 134.268 93.5298 134.595C94.3122 134.923 95.1519 135.091 96.0001 135.091C96.8483 135.091 97.688 134.923 98.4704 134.595C99.2529 134.268 99.9625 133.788 100.558 133.184C101.153 132.58 101.623 131.864 101.939 131.077C102.255 130.29 102.412 129.448 102.4 128.6V71C102.4 64.6675 106.243 58.3347 112.525 53.4125C118.807 48.4904 127.295 45.4 134.4 45.4C141.505 45.4 149.993 48.4904 156.275 53.4125C162.557 58.3347 166.4 64.6675 166.4 71C166.388 71.8481 166.545 72.6901 166.861 73.4771C167.177 74.2641 167.647 74.9804 168.242 75.5844C168.838 76.1883 169.547 76.6679 170.33 76.9953C171.112 77.3226 171.952 77.4912 172.8 77.4912C173.648 77.4912 174.488 77.3226 175.27 76.9953C176.053 76.6679 176.762 76.1883 177.358 75.5844C177.953 74.9804 178.423 74.2641 178.739 73.4771C179.055 72.6901 179.212 71.8481 179.2 71C179.2 59.6622 172.675 49.9978 164.175 43.3375C155.675 36.6773 144.965 32.6 134.4 32.6ZM70.3001 64.5125C68.6049 64.539 66.9895 65.237 65.8083 66.4533C64.6272 67.6696 63.9769 69.3048 64.0001 71V109.4C63.9881 110.248 64.1448 111.09 64.461 111.877C64.7773 112.664 65.2468 113.38 65.8423 113.984C66.4378 114.588 67.1473 115.068 67.9298 115.395C68.7122 115.723 69.5519 115.891 70.4001 115.891C71.2483 115.891 72.088 115.723 72.8704 115.395C73.6529 115.068 74.3624 114.588 74.9579 113.984C75.5534 113.38 76.0229 112.664 76.3392 111.877C76.6554 111.09 76.8121 110.248 76.8001 109.4V71C76.8118 70.1438 76.6516 69.2939 76.329 68.5007C76.0063 67.7075 75.5277 66.987 74.9216 66.3821C74.3155 65.7772 73.5942 65.3 72.8004 64.9789C72.0065 64.6577 71.1563 64.4992 70.3001 64.5125ZM134.4 64.6C123.872 64.6 115.2 73.2722 115.2 83.8C115.188 84.6481 115.345 85.4901 115.661 86.2771C115.977 87.0641 116.447 87.7804 117.042 88.3844C117.638 88.9883 118.347 89.4679 119.13 89.7953C119.912 90.1226 120.752 90.2912 121.6 90.2912C122.448 90.2912 123.288 90.1226 124.07 89.7953C124.853 89.4679 125.562 88.9883 126.158 88.3844C126.753 87.7804 127.223 87.0641 127.539 86.2771C127.855 85.4901 128.012 84.6481 128 83.8C128 80.1838 130.784 77.4 134.4 77.4C138.016 77.4 140.8 80.1838 140.8 83.8V103C140.788 103.848 140.945 104.69 141.261 105.477C141.577 106.264 142.047 106.98 142.642 107.584C143.238 108.188 143.947 108.668 144.73 108.995C145.512 109.323 146.352 109.491 147.2 109.491C148.048 109.491 148.888 109.323 149.67 108.995C150.453 108.668 151.162 108.188 151.758 107.584C152.353 106.98 152.823 106.264 153.139 105.477C153.455 104.69 153.612 103.848 153.6 103V83.8C153.6 73.2722 144.928 64.6 134.4 64.6ZM172.7 96.5125C171.005 96.539 169.389 97.237 168.208 98.4533C167.027 99.6696 166.377 101.305 166.4 103V122.2C166.388 123.048 166.545 123.89 166.861 124.677C167.177 125.464 167.647 126.18 168.242 126.784C168.838 127.388 169.547 127.868 170.33 128.195C171.112 128.523 171.952 128.691 172.8 128.691C173.648 128.691 174.488 128.523 175.27 128.195C176.053 127.868 176.762 127.388 177.358 126.784C177.953 126.18 178.423 125.464 178.739 124.677C179.055 123.89 179.212 123.048 179.2 122.2V103C179.212 102.144 179.052 101.294 178.729 100.501C178.406 99.7075 177.928 98.987 177.322 98.3821C176.716 97.7772 175.994 97.3 175.2 96.9789C174.407 96.6577 173.556 96.4992 172.7 96.5125ZM121.5 102.913C119.805 102.939 118.189 103.637 117.008 104.853C115.827 106.07 115.177 107.705 115.2 109.4V135C115.188 135.848 115.345 136.69 115.661 137.477C115.977 138.264 116.447 138.98 117.042 139.584C117.638 140.188 118.347 140.668 119.13 140.995C119.912 141.323 120.752 141.491 121.6 141.491C122.448 141.491 123.288 141.323 124.07 140.995C124.853 140.668 125.562 140.188 126.158 139.584C126.753 138.98 127.223 138.264 127.539 137.477C127.855 136.69 128.012 135.848 128 135V109.4C128.012 108.544 127.852 107.694 127.529 106.901C127.206 106.107 126.728 105.387 126.122 104.782C125.516 104.177 124.794 103.7 124 103.379C123.207 103.058 122.356 102.899 121.5 102.913ZM147.1 122.113C145.405 122.139 143.789 122.837 142.608 124.053C141.427 125.27 140.777 126.905 140.8 128.6V141.4C140.788 142.248 140.945 143.09 141.261 143.877C141.577 144.664 142.047 145.38 142.642 145.984C143.238 146.588 143.947 147.068 144.73 147.395C145.512 147.723 146.352 147.891 147.2 147.891C148.048 147.891 148.888 147.723 149.67 147.395C150.453 147.068 151.162 146.588 151.758 145.984C152.353 145.38 152.823 144.664 153.139 143.877C153.455 143.09 153.612 142.248 153.6 141.4V128.6C153.612 127.744 153.452 126.894 153.129 126.101C152.806 125.307 152.328 124.587 151.722 123.982C151.116 123.377 150.394 122.9 149.6 122.579C148.807 122.258 147.956 122.099 147.1 122.113Z"/>
</mask>
<path d="M133.65 -31.5375C73.6349 -31.5375 24.8501 17.2473 24.8501 77.2625C24.8501 137.278 73.6349 186.063 133.65 186.063C157.409 186.063 179.342 178.336 197.25 165.375L281.4 249.513L299.5 231.413L216.125 148.038C232.491 128.993 242.45 104.297 242.45 77.2625C242.45 17.2473 193.665 -31.5375 133.65 -31.5375ZM133.65 -18.7375C186.749 -18.7375 229.65 24.1642 229.65 77.2625C229.65 130.361 186.749 173.263 133.65 173.263C80.5517 173.263 37.6501 130.361 37.6501 77.2625C37.6501 24.1642 80.5517 -18.7375 133.65 -18.7375ZM134.4 7.00003C112.255 7.00003 90.56 17.9781 77.0751 35.025C76.5528 35.6841 76.1655 36.4395 75.9352 37.2483C75.705 38.0571 75.6363 38.9033 75.7331 39.7386C75.8299 40.5739 76.0904 41.3819 76.4995 42.1166C76.9087 42.8512 77.4586 43.4981 78.1178 44.0202C78.777 44.5423 79.5325 44.9294 80.3414 45.1594C81.1502 45.3895 81.9964 45.4579 82.8317 45.3609C83.667 45.2638 84.4749 45.0031 85.2095 44.5938C85.944 44.1844 86.5907 43.6344 87.1126 42.975C98.0501 29.1484 116.597 19.8 134.4 19.8C135.248 19.812 136.09 19.6553 136.877 19.3391C137.664 19.0228 138.38 18.5533 138.984 17.9579C139.588 17.3624 140.068 16.6528 140.395 15.8703C140.723 15.0879 140.891 14.2482 140.891 13.4C140.891 12.5519 140.723 11.7122 140.395 10.9297C140.068 10.1473 139.588 9.43769 138.984 8.8422C138.38 8.24672 137.664 7.77721 136.877 7.46096C136.09 7.14471 135.248 6.98803 134.4 7.00003ZM160.038 12.3875C158.548 12.3615 157.095 12.8563 155.931 13.7865C154.766 14.7167 153.963 16.024 153.66 17.483C153.356 18.942 153.571 20.4613 154.267 21.7788C154.964 23.0963 156.098 24.1294 157.475 24.7C176.974 33.0533 192 51.0548 192 71V103C191.988 103.848 192.145 104.69 192.461 105.477C192.777 106.264 193.247 106.98 193.842 107.584C194.438 108.188 195.147 108.668 195.93 108.995C196.712 109.323 197.552 109.491 198.4 109.491C199.248 109.491 200.088 109.323 200.87 108.995C201.653 108.668 202.362 108.188 202.958 107.584C203.553 106.98 204.023 106.264 204.339 105.477C204.655 104.69 204.812 103.848 204.8 103V71C204.8 44.7885 185.932 22.965 162.525 12.9375C161.741 12.5894 160.895 12.4023 160.038 12.3875ZM134.4 32.6C123.835 32.6 113.125 36.6773 104.625 43.3375C96.1248 49.9978 89.6001 59.6622 89.6001 71V128.6C89.5881 129.448 89.7448 130.29 90.061 131.077C90.3773 131.864 90.8468 132.58 91.4423 133.184C92.0378 133.788 92.7474 134.268 93.5298 134.595C94.3122 134.923 95.1519 135.091 96.0001 135.091C96.8483 135.091 97.688 134.923 98.4704 134.595C99.2529 134.268 99.9625 133.788 100.558 133.184C101.153 132.58 101.623 131.864 101.939 131.077C102.255 130.29 102.412 129.448 102.4 128.6V71C102.4 64.6675 106.243 58.3347 112.525 53.4125C118.807 48.4904 127.295 45.4 134.4 45.4C141.505 45.4 149.993 48.4904 156.275 53.4125C162.557 58.3347 166.4 64.6675 166.4 71C166.388 71.8481 166.545 72.6901 166.861 73.4771C167.177 74.2641 167.647 74.9804 168.242 75.5844C168.838 76.1883 169.547 76.6679 170.33 76.9953C171.112 77.3226 171.952 77.4912 172.8 77.4912C173.648 77.4912 174.488 77.3226 175.27 76.9953C176.053 76.6679 176.762 76.1883 177.358 75.5844C177.953 74.9804 178.423 74.2641 178.739 73.4771C179.055 72.6901 179.212 71.8481 179.2 71C179.2 59.6622 172.675 49.9978 164.175 43.3375C155.675 36.6773 144.965 32.6 134.4 32.6ZM70.3001 64.5125C68.6049 64.539 66.9895 65.237 65.8083 66.4533C64.6272 67.6696 63.9769 69.3048 64.0001 71V109.4C63.9881 110.248 64.1448 111.09 64.461 111.877C64.7773 112.664 65.2468 113.38 65.8423 113.984C66.4378 114.588 67.1473 115.068 67.9298 115.395C68.7122 115.723 69.5519 115.891 70.4001 115.891C71.2483 115.891 72.088 115.723 72.8704 115.395C73.6529 115.068 74.3624 114.588 74.9579 113.984C75.5534 113.38 76.0229 112.664 76.3392 111.877C76.6554 111.09 76.8121 110.248 76.8001 109.4V71C76.8118 70.1438 76.6516 69.2939 76.329 68.5007C76.0063 67.7075 75.5277 66.987 74.9216 66.3821C74.3155 65.7772 73.5942 65.3 72.8004 64.9789C72.0065 64.6577 71.1563 64.4992 70.3001 64.5125ZM134.4 64.6C123.872 64.6 115.2 73.2722 115.2 83.8C115.188 84.6481 115.345 85.4901 115.661 86.2771C115.977 87.0641 116.447 87.7804 117.042 88.3844C117.638 88.9883 118.347 89.4679 119.13 89.7953C119.912 90.1226 120.752 90.2912 121.6 90.2912C122.448 90.2912 123.288 90.1226 124.07 89.7953C124.853 89.4679 125.562 88.9883 126.158 88.3844C126.753 87.7804 127.223 87.0641 127.539 86.2771C127.855 85.4901 128.012 84.6481 128 83.8C128 80.1838 130.784 77.4 134.4 77.4C138.016 77.4 140.8 80.1838 140.8 83.8V103C140.788 103.848 140.945 104.69 141.261 105.477C141.577 106.264 142.047 106.98 142.642 107.584C143.238 108.188 143.947 108.668 144.73 108.995C145.512 109.323 146.352 109.491 147.2 109.491C148.048 109.491 148.888 109.323 149.67 108.995C150.453 108.668 151.162 108.188 151.758 107.584C152.353 106.98 152.823 106.264 153.139 105.477C153.455 104.69 153.612 103.848 153.6 103V83.8C153.6 73.2722 144.928 64.6 134.4 64.6ZM172.7 96.5125C171.005 96.539 169.389 97.237 168.208 98.4533C167.027 99.6696 166.377 101.305 166.4 103V122.2C166.388 123.048 166.545 123.89 166.861 124.677C167.177 125.464 167.647 126.18 168.242 126.784C168.838 127.388 169.547 127.868 170.33 128.195C171.112 128.523 171.952 128.691 172.8 128.691C173.648 128.691 174.488 128.523 175.27 128.195C176.053 127.868 176.762 127.388 177.358 126.784C177.953 126.18 178.423 125.464 178.739 124.677C179.055 123.89 179.212 123.048 179.2 122.2V103C179.212 102.144 179.052 101.294 178.729 100.501C178.406 99.7075 177.928 98.987 177.322 98.3821C176.716 97.7772 175.994 97.3 175.2 96.9789C174.407 96.6577 173.556 96.4992 172.7 96.5125ZM121.5 102.913C119.805 102.939 118.189 103.637 117.008 104.853C115.827 106.07 115.177 107.705 115.2 109.4V135C115.188 135.848 115.345 136.69 115.661 137.477C115.977 138.264 116.447 138.98 117.042 139.584C117.638 140.188 118.347 140.668 119.13 140.995C119.912 141.323 120.752 141.491 121.6 141.491C122.448 141.491 123.288 141.323 124.07 140.995C124.853 140.668 125.562 140.188 126.158 139.584C126.753 138.98 127.223 138.264 127.539 137.477C127.855 136.69 128.012 135.848 128 135V109.4C128.012 108.544 127.852 107.694 127.529 106.901C127.206 106.107 126.728 105.387 126.122 104.782C125.516 104.177 124.794 103.7 124 103.379C123.207 103.058 122.356 102.899 121.5 102.913ZM147.1 122.113C145.405 122.139 143.789 122.837 142.608 124.053C141.427 125.27 140.777 126.905 140.8 128.6V141.4C140.788 142.248 140.945 143.09 141.261 143.877C141.577 144.664 142.047 145.38 142.642 145.984C143.238 146.588 143.947 147.068 144.73 147.395C145.512 147.723 146.352 147.891 147.2 147.891C148.048 147.891 148.888 147.723 149.67 147.395C150.453 147.068 151.162 146.588 151.758 145.984C152.353 145.38 152.823 144.664 153.139 143.877C153.455 143.09 153.612 142.248 153.6 141.4V128.6C153.612 127.744 153.452 126.894 153.129 126.101C152.806 125.307 152.328 124.587 151.722 123.982C151.116 123.377 150.394 122.9 149.6 122.579C148.807 122.258 147.956 122.099 147.1 122.113Z" stroke="url(#paint0_linear_767_743)" stroke-width="3.975" mask="url(#path-1-inside-1_767_743)"/>
</g>
<mask id="path-2-inside-2_767_743" fill="white">
<path d="M133.65 -31.5375C73.6349 -31.5375 24.8501 17.2473 24.8501 77.2625C24.8501 137.278 73.6349 186.063 133.65 186.063C157.409 186.063 179.342 178.336 197.25 165.375L281.4 249.513L299.5 231.413L216.125 148.038C232.491 128.993 242.45 104.297 242.45 77.2625C242.45 17.2473 193.665 -31.5375 133.65 -31.5375ZM133.65 -18.7375C186.749 -18.7375 229.65 24.1642 229.65 77.2625C229.65 130.361 186.749 173.263 133.65 173.263C80.5517 173.263 37.6501 130.361 37.6501 77.2625C37.6501 24.1642 80.5517 -18.7375 133.65 -18.7375ZM134.4 7.00003C112.255 7.00003 90.56 17.9781 77.0751 35.025C76.5528 35.6841 76.1655 36.4395 75.9352 37.2483C75.705 38.0571 75.6363 38.9033 75.7331 39.7386C75.8299 40.5739 76.0904 41.3819 76.4995 42.1166C76.9087 42.8512 77.4586 43.4981 78.1178 44.0202C78.777 44.5423 79.5325 44.9294 80.3414 45.1594C81.1502 45.3895 81.9964 45.4579 82.8317 45.3609C83.667 45.2638 84.4749 45.0031 85.2095 44.5938C85.944 44.1844 86.5907 43.6344 87.1126 42.975C98.0501 29.1484 116.597 19.8 134.4 19.8C135.248 19.812 136.09 19.6553 136.877 19.3391C137.664 19.0228 138.38 18.5533 138.984 17.9579C139.588 17.3624 140.068 16.6528 140.395 15.8703C140.723 15.0879 140.891 14.2482 140.891 13.4C140.891 12.5519 140.723 11.7122 140.395 10.9297C140.068 10.1473 139.588 9.43769 138.984 8.8422C138.38 8.24672 137.664 7.77721 136.877 7.46096C136.09 7.14471 135.248 6.98803 134.4 7.00003ZM160.038 12.3875C158.548 12.3615 157.095 12.8563 155.931 13.7865C154.766 14.7167 153.963 16.024 153.66 17.483C153.356 18.942 153.571 20.4613 154.267 21.7788C154.964 23.0963 156.098 24.1294 157.475 24.7C176.974 33.0533 192 51.0548 192 71V103C191.988 103.848 192.145 104.69 192.461 105.477C192.777 106.264 193.247 106.98 193.842 107.584C194.438 108.188 195.147 108.668 195.93 108.995C196.712 109.323 197.552 109.491 198.4 109.491C199.248 109.491 200.088 109.323 200.87 108.995C201.653 108.668 202.362 108.188 202.958 107.584C203.553 106.98 204.023 106.264 204.339 105.477C204.655 104.69 204.812 103.848 204.8 103V71C204.8 44.7885 185.932 22.965 162.525 12.9375C161.741 12.5894 160.895 12.4023 160.038 12.3875ZM134.4 32.6C123.835 32.6 113.125 36.6773 104.625 43.3375C96.1248 49.9978 89.6001 59.6622 89.6001 71V128.6C89.5881 129.448 89.7448 130.29 90.061 131.077C90.3773 131.864 90.8468 132.58 91.4423 133.184C92.0378 133.788 92.7474 134.268 93.5298 134.595C94.3122 134.923 95.1519 135.091 96.0001 135.091C96.8483 135.091 97.688 134.923 98.4704 134.595C99.2529 134.268 99.9625 133.788 100.558 133.184C101.153 132.58 101.623 131.864 101.939 131.077C102.255 130.29 102.412 129.448 102.4 128.6V71C102.4 64.6675 106.243 58.3347 112.525 53.4125C118.807 48.4904 127.295 45.4 134.4 45.4C141.505 45.4 149.993 48.4904 156.275 53.4125C162.557 58.3347 166.4 64.6675 166.4 71C166.388 71.8481 166.545 72.6901 166.861 73.4771C167.177 74.2641 167.647 74.9804 168.242 75.5844C168.838 76.1883 169.547 76.6679 170.33 76.9953C171.112 77.3226 171.952 77.4912 172.8 77.4912C173.648 77.4912 174.488 77.3226 175.27 76.9953C176.053 76.6679 176.762 76.1883 177.358 75.5844C177.953 74.9804 178.423 74.2641 178.739 73.4771C179.055 72.6901 179.212 71.8481 179.2 71C179.2 59.6622 172.675 49.9978 164.175 43.3375C155.675 36.6773 144.965 32.6 134.4 32.6ZM70.3001 64.5125C68.6049 64.539 66.9895 65.237 65.8083 66.4533C64.6272 67.6696 63.9769 69.3048 64.0001 71V109.4C63.9881 110.248 64.1448 111.09 64.461 111.877C64.7773 112.664 65.2468 113.38 65.8423 113.984C66.4378 114.588 67.1473 115.068 67.9298 115.395C68.7122 115.723 69.5519 115.891 70.4001 115.891C71.2483 115.891 72.088 115.723 72.8704 115.395C73.6529 115.068 74.3624 114.588 74.9579 113.984C75.5534 113.38 76.0229 112.664 76.3392 111.877C76.6554 111.09 76.8121 110.248 76.8001 109.4V71C76.8118 70.1438 76.6516 69.2939 76.329 68.5007C76.0063 67.7075 75.5277 66.987 74.9216 66.3821C74.3155 65.7772 73.5942 65.3 72.8004 64.9789C72.0065 64.6577 71.1563 64.4992 70.3001 64.5125ZM134.4 64.6C123.872 64.6 115.2 73.2722 115.2 83.8C115.188 84.6481 115.345 85.4901 115.661 86.2771C115.977 87.0641 116.447 87.7804 117.042 88.3844C117.638 88.9883 118.347 89.4679 119.13 89.7953C119.912 90.1226 120.752 90.2912 121.6 90.2912C122.448 90.2912 123.288 90.1226 124.07 89.7953C124.853 89.4679 125.562 88.9883 126.158 88.3844C126.753 87.7804 127.223 87.0641 127.539 86.2771C127.855 85.4901 128.012 84.6481 128 83.8C128 80.1838 130.784 77.4 134.4 77.4C138.016 77.4 140.8 80.1838 140.8 83.8V103C140.788 103.848 140.945 104.69 141.261 105.477C141.577 106.264 142.047 106.98 142.642 107.584C143.238 108.188 143.947 108.668 144.73 108.995C145.512 109.323 146.352 109.491 147.2 109.491C148.048 109.491 148.888 109.323 149.67 108.995C150.453 108.668 151.162 108.188 151.758 107.584C152.353 106.98 152.823 106.264 153.139 105.477C153.455 104.69 153.612 103.848 153.6 103V83.8C153.6 73.2722 144.928 64.6 134.4 64.6ZM172.7 96.5125C171.005 96.539 169.389 97.237 168.208 98.4533C167.027 99.6696 166.377 101.305 166.4 103V122.2C166.388 123.048 166.545 123.89 166.861 124.677C167.177 125.464 167.647 126.18 168.242 126.784C168.838 127.388 169.547 127.868 170.33 128.195C171.112 128.523 171.952 128.691 172.8 128.691C173.648 128.691 174.488 128.523 175.27 128.195C176.053 127.868 176.762 127.388 177.358 126.784C177.953 126.18 178.423 125.464 178.739 124.677C179.055 123.89 179.212 123.048 179.2 122.2V103C179.212 102.144 179.052 101.294 178.729 100.501C178.406 99.7075 177.928 98.987 177.322 98.3821C176.716 97.7772 175.994 97.3 175.2 96.9789C174.407 96.6577 173.556 96.4992 172.7 96.5125ZM121.5 102.913C119.805 102.939 118.189 103.637 117.008 104.853C115.827 106.07 115.177 107.705 115.2 109.4V135C115.188 135.848 115.345 136.69 115.661 137.477C115.977 138.264 116.447 138.98 117.042 139.584C117.638 140.188 118.347 140.668 119.13 140.995C119.912 141.323 120.752 141.491 121.6 141.491C122.448 141.491 123.288 141.323 124.07 140.995C124.853 140.668 125.562 140.188 126.158 139.584C126.753 138.98 127.223 138.264 127.539 137.477C127.855 136.69 128.012 135.848 128 135V109.4C128.012 108.544 127.852 107.694 127.529 106.901C127.206 106.107 126.728 105.387 126.122 104.782C125.516 104.177 124.794 103.7 124 103.379C123.207 103.058 122.356 102.899 121.5 102.913ZM147.1 122.113C145.405 122.139 143.789 122.837 142.608 124.053C141.427 125.27 140.777 126.905 140.8 128.6V141.4C140.788 142.248 140.945 143.09 141.261 143.877C141.577 144.664 142.047 145.38 142.642 145.984C143.238 146.588 143.947 147.068 144.73 147.395C145.512 147.723 146.352 147.891 147.2 147.891C148.048 147.891 148.888 147.723 149.67 147.395C150.453 147.068 151.162 146.588 151.758 145.984C152.353 145.38 152.823 144.664 153.139 143.877C153.455 143.09 153.612 142.248 153.6 141.4V128.6C153.612 127.744 153.452 126.894 153.129 126.101C152.806 125.307 152.328 124.587 151.722 123.982C151.116 123.377 150.394 122.9 149.6 122.579C148.807 122.258 147.956 122.099 147.1 122.113Z"/>
</mask>
<path d="M133.65 -31.5375C73.6349 -31.5375 24.8501 17.2473 24.8501 77.2625C24.8501 137.278 73.6349 186.063 133.65 186.063C157.409 186.063 179.342 178.336 197.25 165.375L281.4 249.513L299.5 231.413L216.125 148.038C232.491 128.993 242.45 104.297 242.45 77.2625C242.45 17.2473 193.665 -31.5375 133.65 -31.5375ZM133.65 -18.7375C186.749 -18.7375 229.65 24.1642 229.65 77.2625C229.65 130.361 186.749 173.263 133.65 173.263C80.5517 173.263 37.6501 130.361 37.6501 77.2625C37.6501 24.1642 80.5517 -18.7375 133.65 -18.7375ZM134.4 7.00003C112.255 7.00003 90.56 17.9781 77.0751 35.025C76.5528 35.6841 76.1655 36.4395 75.9352 37.2483C75.705 38.0571 75.6363 38.9033 75.7331 39.7386C75.8299 40.5739 76.0904 41.3819 76.4995 42.1166C76.9087 42.8512 77.4586 43.4981 78.1178 44.0202C78.777 44.5423 79.5325 44.9294 80.3414 45.1594C81.1502 45.3895 81.9964 45.4579 82.8317 45.3609C83.667 45.2638 84.4749 45.0031 85.2095 44.5938C85.944 44.1844 86.5907 43.6344 87.1126 42.975C98.0501 29.1484 116.597 19.8 134.4 19.8C135.248 19.812 136.09 19.6553 136.877 19.3391C137.664 19.0228 138.38 18.5533 138.984 17.9579C139.588 17.3624 140.068 16.6528 140.395 15.8703C140.723 15.0879 140.891 14.2482 140.891 13.4C140.891 12.5519 140.723 11.7122 140.395 10.9297C140.068 10.1473 139.588 9.43769 138.984 8.8422C138.38 8.24672 137.664 7.77721 136.877 7.46096C136.09 7.14471 135.248 6.98803 134.4 7.00003ZM160.038 12.3875C158.548 12.3615 157.095 12.8563 155.931 13.7865C154.766 14.7167 153.963 16.024 153.66 17.483C153.356 18.942 153.571 20.4613 154.267 21.7788C154.964 23.0963 156.098 24.1294 157.475 24.7C176.974 33.0533 192 51.0548 192 71V103C191.988 103.848 192.145 104.69 192.461 105.477C192.777 106.264 193.247 106.98 193.842 107.584C194.438 108.188 195.147 108.668 195.93 108.995C196.712 109.323 197.552 109.491 198.4 109.491C199.248 109.491 200.088 109.323 200.87 108.995C201.653 108.668 202.362 108.188 202.958 107.584C203.553 106.98 204.023 106.264 204.339 105.477C204.655 104.69 204.812 103.848 204.8 103V71C204.8 44.7885 185.932 22.965 162.525 12.9375C161.741 12.5894 160.895 12.4023 160.038 12.3875ZM134.4 32.6C123.835 32.6 113.125 36.6773 104.625 43.3375C96.1248 49.9978 89.6001 59.6622 89.6001 71V128.6C89.5881 129.448 89.7448 130.29 90.061 131.077C90.3773 131.864 90.8468 132.58 91.4423 133.184C92.0378 133.788 92.7474 134.268 93.5298 134.595C94.3122 134.923 95.1519 135.091 96.0001 135.091C96.8483 135.091 97.688 134.923 98.4704 134.595C99.2529 134.268 99.9625 133.788 100.558 133.184C101.153 132.58 101.623 131.864 101.939 131.077C102.255 130.29 102.412 129.448 102.4 128.6V71C102.4 64.6675 106.243 58.3347 112.525 53.4125C118.807 48.4904 127.295 45.4 134.4 45.4C141.505 45.4 149.993 48.4904 156.275 53.4125C162.557 58.3347 166.4 64.6675 166.4 71C166.388 71.8481 166.545 72.6901 166.861 73.4771C167.177 74.2641 167.647 74.9804 168.242 75.5844C168.838 76.1883 169.547 76.6679 170.33 76.9953C171.112 77.3226 171.952 77.4912 172.8 77.4912C173.648 77.4912 174.488 77.3226 175.27 76.9953C176.053 76.6679 176.762 76.1883 177.358 75.5844C177.953 74.9804 178.423 74.2641 178.739 73.4771C179.055 72.6901 179.212 71.8481 179.2 71C179.2 59.6622 172.675 49.9978 164.175 43.3375C155.675 36.6773 144.965 32.6 134.4 32.6ZM70.3001 64.5125C68.6049 64.539 66.9895 65.237 65.8083 66.4533C64.6272 67.6696 63.9769 69.3048 64.0001 71V109.4C63.9881 110.248 64.1448 111.09 64.461 111.877C64.7773 112.664 65.2468 113.38 65.8423 113.984C66.4378 114.588 67.1473 115.068 67.9298 115.395C68.7122 115.723 69.5519 115.891 70.4001 115.891C71.2483 115.891 72.088 115.723 72.8704 115.395C73.6529 115.068 74.3624 114.588 74.9579 113.984C75.5534 113.38 76.0229 112.664 76.3392 111.877C76.6554 111.09 76.8121 110.248 76.8001 109.4V71C76.8118 70.1438 76.6516 69.2939 76.329 68.5007C76.0063 67.7075 75.5277 66.987 74.9216 66.3821C74.3155 65.7772 73.5942 65.3 72.8004 64.9789C72.0065 64.6577 71.1563 64.4992 70.3001 64.5125ZM134.4 64.6C123.872 64.6 115.2 73.2722 115.2 83.8C115.188 84.6481 115.345 85.4901 115.661 86.2771C115.977 87.0641 116.447 87.7804 117.042 88.3844C117.638 88.9883 118.347 89.4679 119.13 89.7953C119.912 90.1226 120.752 90.2912 121.6 90.2912C122.448 90.2912 123.288 90.1226 124.07 89.7953C124.853 89.4679 125.562 88.9883 126.158 88.3844C126.753 87.7804 127.223 87.0641 127.539 86.2771C127.855 85.4901 128.012 84.6481 128 83.8C128 80.1838 130.784 77.4 134.4 77.4C138.016 77.4 140.8 80.1838 140.8 83.8V103C140.788 103.848 140.945 104.69 141.261 105.477C141.577 106.264 142.047 106.98 142.642 107.584C143.238 108.188 143.947 108.668 144.73 108.995C145.512 109.323 146.352 109.491 147.2 109.491C148.048 109.491 148.888 109.323 149.67 108.995C150.453 108.668 151.162 108.188 151.758 107.584C152.353 106.98 152.823 106.264 153.139 105.477C153.455 104.69 153.612 103.848 153.6 103V83.8C153.6 73.2722 144.928 64.6 134.4 64.6ZM172.7 96.5125C171.005 96.539 169.389 97.237 168.208 98.4533C167.027 99.6696 166.377 101.305 166.4 103V122.2C166.388 123.048 166.545 123.89 166.861 124.677C167.177 125.464 167.647 126.18 168.242 126.784C168.838 127.388 169.547 127.868 170.33 128.195C171.112 128.523 171.952 128.691 172.8 128.691C173.648 128.691 174.488 128.523 175.27 128.195C176.053 127.868 176.762 127.388 177.358 126.784C177.953 126.18 178.423 125.464 178.739 124.677C179.055 123.89 179.212 123.048 179.2 122.2V103C179.212 102.144 179.052 101.294 178.729 100.501C178.406 99.7075 177.928 98.987 177.322 98.3821C176.716 97.7772 175.994 97.3 175.2 96.9789C174.407 96.6577 173.556 96.4992 172.7 96.5125ZM121.5 102.913C119.805 102.939 118.189 103.637 117.008 104.853C115.827 106.07 115.177 107.705 115.2 109.4V135C115.188 135.848 115.345 136.69 115.661 137.477C115.977 138.264 116.447 138.98 117.042 139.584C117.638 140.188 118.347 140.668 119.13 140.995C119.912 141.323 120.752 141.491 121.6 141.491C122.448 141.491 123.288 141.323 124.07 140.995C124.853 140.668 125.562 140.188 126.158 139.584C126.753 138.98 127.223 138.264 127.539 137.477C127.855 136.69 128.012 135.848 128 135V109.4C128.012 108.544 127.852 107.694 127.529 106.901C127.206 106.107 126.728 105.387 126.122 104.782C125.516 104.177 124.794 103.7 124 103.379C123.207 103.058 122.356 102.899 121.5 102.913ZM147.1 122.113C145.405 122.139 143.789 122.837 142.608 124.053C141.427 125.27 140.777 126.905 140.8 128.6V141.4C140.788 142.248 140.945 143.09 141.261 143.877C141.577 144.664 142.047 145.38 142.642 145.984C143.238 146.588 143.947 147.068 144.73 147.395C145.512 147.723 146.352 147.891 147.2 147.891C148.048 147.891 148.888 147.723 149.67 147.395C150.453 147.068 151.162 146.588 151.758 145.984C152.353 145.38 152.823 144.664 153.139 143.877C153.455 143.09 153.612 142.248 153.6 141.4V128.6C153.612 127.744 153.452 126.894 153.129 126.101C152.806 125.307 152.328 124.587 151.722 123.982C151.116 123.377 150.394 122.9 149.6 122.579C148.807 122.258 147.956 122.099 147.1 122.113Z" fill="url(#paint1_linear_767_743)" stroke="url(#paint2_linear_767_743)" stroke-width="3.975" mask="url(#path-2-inside-2_767_743)"/>
</g>
<defs>
<filter id="filter0_f_767_743" x="-11.9846" y="-68.9846" width="343.969" height="343.969" filterUnits="userSpaceOnUse" color-interpolation-filters="sRGB">
<feFlood flood-opacity="0" result="BackgroundImageFix"/>
<feBlend mode="normal" in="SourceGraphic" in2="BackgroundImageFix" result="shape"/>
<feGaussianBlur stdDeviation="5.99231" result="effect1_foregroundBlur_767_743"/>
</filter>
<linearGradient id="paint0_linear_767_743" x1="299.5" y1="-31.5375" x2="18.5247" y2="243.04" gradientUnits="userSpaceOnUse">
<stop offset="0.260417" stop-color="#8556E9"/>
<stop offset="1" stop-color="#578CF2"/>
</linearGradient>
<linearGradient id="paint1_linear_767_743" x1="299.5" y1="-31.5375" x2="18.5247" y2="243.04" gradientUnits="userSpaceOnUse">
<stop stop-color="#8556E9"/>
<stop offset="0.645833" stop-color="#0EB6EA"/>
</linearGradient>
<linearGradient id="paint2_linear_767_743" x1="299.5" y1="-31.5375" x2="18.5247" y2="243.04" gradientUnits="userSpaceOnUse">
<stop stop-color="#8556E9"/>
<stop offset="0.645833" stop-color="#0EB6EA"/>
</linearGradient>
</defs>
</svg>
